<?xml version="1.0" encoding="UTF-8" standalone="no" ?>
<!DOCTYPE svg PUBLIC "-//W3C//DTD SVG 1.1//EN" "http://www.w3.org/Graphics/SVG/1.1/DTD/svg11.dtd">
<svg xmlns="http://www.w3.org/2000/svg" xmlns:xlink="http://www.w3.org/1999/xlink" version="1.1" width="1080" height="1080" viewBox="0 0 1080 1080" xml:space="preserve">
<desc>Created with Fabric.js 5.2.4</desc>
<defs>
</defs>
<g transform="matrix(1 0 0 1 540 540)" id="16b4003e-2da6-406e-a1ec-e521fe655390"  >
<rect style="stroke: none; stroke-width: 1; stroke-dasharray: none; stroke-linecap: butt; stroke-dashoffset: 0; stroke-linejoin: miter; stroke-miterlimit: 4; fill: rgb(255,255,255); fill-rule: nonzero; opacity: 1; visibility: hidden;" vector-effect="non-scaling-stroke"  x="-540" y="-540" rx="0" ry="0" width="1080" height="1080" />
</g>
<g transform="matrix(1 0 0 1 540 540)" id="ee9b7f62-8e73-48be-baca-809cd965722c"  >
</g>
<g transform="matrix(2.17 0 0 2.17 487.11 540)"  >
<g style="" vector-effect="non-scaling-stroke"   >
		<g transform="matrix(1 0 0 1 -1.8 -56.12)"  >
<path style="stroke: none; stroke-width: 1; stroke-dasharray: none; stroke-linecap: butt; stroke-dashoffset: 0; stroke-linejoin: miter; stroke-miterlimit: 4; fill: rgb(235,235,235); fill-rule: nonzero; opacity: 1;" vector-effect="non-scaling-stroke"  transform=" translate(-248.2, -208.8)" d="M 430.18 173 C 419.3 156.23 401.11 143.65 381.18 142.32999999999998 C 364.54 141.21999999999997 348.48 147.69 332.49 152.44 C 316.5 157.19 298.49 160.07999999999998 283.72 152.44 C 262.92 141.64 256.99 115.3 244.33000000000004 95.57 C 220.87 59 169.22 45.63 129 62 C 88.78 78.37 55.879999999999995 121.66 52.230000000000004 165 C 48.58000000000001 208.34 58.480000000000004 253 87.56 285.28 C 120.1 326.89 156.67000000000002 345.28 207.5 355.71999999999997 C 259.18 366.29 320.9 366.87 378 340 C 425.78 317.49 444 283 444.88 230.22 C 445.19 210.24 441.05 189.77 430.18 173 Z" stroke-linecap="round" />
</g>
		<g transform="matrix(1 0 0 1 0 208.55)"  >
<path style="stroke: none; stroke-width: 1; stroke-dasharray: none; stroke-linecap: butt; stroke-dashoffset: 0; stroke-linejoin: miter; stroke-miterlimit: 4; fill: rgb(38,50,56); fill-rule: nonzero; opacity: 1;" vector-effect="non-scaling-stroke"  transform=" translate(-250, -473.46)" d="M 456.62 473.46 C 456.62 473.59999999999997 364.11 473.71999999999997 250.01 473.71999999999997 C 135.90999999999997 473.71999999999997 43.379999999999995 473.59999999999997 43.379999999999995 473.46 C 43.379999999999995 473.32 135.87 473.2 250.01 473.2 C 364.15 473.2 456.62 473.31 456.62 473.46 Z" stroke-linecap="round" />
</g>
		<g transform="matrix(1 0 0 1 -93.7 180.78)"  >
<polygon style="stroke: none; stroke-width: 1; stroke-dasharray: none; stroke-linecap: butt; stroke-dashoffset: 0; stroke-linejoin: miter; stroke-miterlimit: 4; fill: rgb(64,123,255); fill-rule: nonzero; opacity: 1;" vector-effect="non-scaling-stroke"  points="38.23,28.06 -38.23,28.06 -32.45,-27.6 38.23,-28.06 38.23,28.06 " />
</g>
		<g transform="matrix(1 0 0 1 -93.7 180.78)"  >
<polygon style="stroke: none; stroke-width: 1; stroke-dasharray: none; stroke-linecap: butt; stroke-dashoffset: 0; stroke-linejoin: miter; stroke-miterlimit: 4; fill: rgb(0,0,0); fill-rule: nonzero; opacity: 0.4;" vector-effect="non-scaling-stroke"  points="38.23,28.06 -38.23,28.06 -32.45,-27.6 38.23,-28.06 38.23,28.06 " />
</g>
		<g transform="matrix(1 0 0 1 -82.55 180.77)"  >
<rect style="stroke: none; stroke-width: 1; stroke-dasharray: none; stroke-linecap: butt; stroke-dashoffset: 0; stroke-linejoin: miter; stroke-miterlimit: 4; fill: rgb(64,123,255); fill-rule: nonzero; opacity: 1;" vector-effect="non-scaling-stroke"  x="-38.23" y="-28.055" rx="0" ry="0" width="76.46" height="56.11" />
</g>
		<g transform="matrix(1 0 0 1 -82.55 180.77)"  >
<rect style="stroke: none; stroke-width: 1; stroke-dasharray: none; stroke-linecap: butt; stroke-dashoffset: 0; stroke-linejoin: miter; stroke-miterlimit: 4; fill: rgb(0,0,0); fill-rule: nonzero; opacity: 0.2;" vector-effect="non-scaling-stroke"  x="-38.23" y="-28.055" rx="0" ry="0" width="76.46" height="56.11" />
</g>
		<g transform="matrix(1 0 0 1 -82.1 179.88)"  >
<path style="stroke: none; stroke-width: 1; stroke-dasharray: none; stroke-linecap: butt; stroke-dashoffset: 0; stroke-linejoin: miter; stroke-miterlimit: 4; fill: rgb(38,50,56); fill-rule: nonzero; opacity: 1;" vector-effect="non-scaling-stroke"  transform=" translate(-167.9, -444.8)" d="M 206.32 444.8 C 206.32 444.94 189.12 445.06 167.91 445.06 C 146.7 445.06 129.48 444.94 129.48 444.8 C 129.48 444.66 146.67999999999998 444.53000000000003 167.91 444.53000000000003 C 189.14000000000001 444.53000000000003 206.32 444.65 206.32 444.8 Z" stroke-linecap="round" />
</g>
		<g transform="matrix(1 0 0 1 -107.16 181.08)"  >
<path style="stroke: none; stroke-width: 1; stroke-dasharray: none; stroke-linecap: butt; stroke-dashoffset: 0; stroke-linejoin: miter; stroke-miterlimit: 4; fill: rgb(38,50,56); fill-rule: nonzero; opacity: 1;" vector-effect="non-scaling-stroke"  transform=" translate(-142.84, -446)" d="M 142.84 450.2 C 142.49329347503408 447.40738653121366 142.49329347503408 444.5826134687863 142.84 441.78999999999996 C 143.18670652496593 444.5826134687863 143.18670652496593 447.40738653121366 142.84 450.2 Z" stroke-linecap="round" />
</g>
		<g transform="matrix(1 0 0 1 -54 181.23)"  >
<path style="stroke: none; stroke-width: 1; stroke-dasharray: none; stroke-linecap: butt; stroke-dashoffset: 0; stroke-linejoin: miter; stroke-miterlimit: 4; fill: rgb(38,50,56); fill-rule: nonzero; opacity: 1;" vector-effect="non-scaling-stroke"  transform=" translate(-196, -446.14)" d="M 196 449.9 C 195.65339199698812 447.40866438049005 195.65339199698812 444.8813356195099 196 442.39 C 196.34660800301188 444.8813356195099 196.34660800301188 447.40866438049005 196 449.9 Z" stroke-linecap="round" />
</g>
		<g transform="matrix(1 0 0 1 -85.95 147.04)"  >
<path style="stroke: none; stroke-width: 1; stroke-dasharray: none; stroke-linecap: butt; stroke-dashoffset: 0; stroke-linejoin: miter; stroke-miterlimit: 4; fill: rgb(38,50,56); fill-rule: nonzero; opacity: 1;" vector-effect="non-scaling-stroke"  transform=" translate(-164.05, -411.96)" d="M 179.16 417.92 C 179.16 417.92 179.16 417.31 178.98 416.26 C 178.71343472557464 414.77194041727887 178.1339949740954 413.35742572984424 177.28 412.11 C 176.01969910416665 410.2581729412897 174.2719980674669 408.7907962292883 172.23 407.87 C 169.71364942281593 406.7623017432137 166.9769918704513 406.2457576302049 164.23 406.36 C 161.46655247035176 406.3824501946461 158.7395083966961 406.99262630612657 156.23 408.15000000000003 C 154.19854986238497 409.0994099008868 152.4405821679765 410.54775510508637 151.11999999999998 412.36 C 150.23475561746594 413.58398565504507 149.59932314463526 414.9703837775847 149.24999999999997 416.44 C 149.00999999999996 417.49 148.99999999999997 418.09 148.94999999999996 418.09 C 148.93473867586218 417.9437303356307 148.93473867586218 417.79626966436933 148.94999999999996 417.65 C 148.95135939159582 417.2305239468071 148.9915306348986 416.8120734957363 149.06999999999996 416.4 C 149.35038180211126 414.8733826482019 149.953865748936 413.42433927305774 150.83999999999997 412.15 C 152.1580791363546 410.24578723977385 153.95053706547912 408.7187509655389 156.03999999999996 407.71999999999997 C 158.58871111680472 406.51122957643486 161.36933241117802 405.869810185831 164.18999999999997 405.84 C 167.01419539797018 405.7231374068598 169.8263630239145 406.2711846908441 172.39999999999998 407.44 C 174.50216636924364 408.41712819960065 176.28687749801392 409.9661881502032 177.54999999999998 411.91 C 178.40546615369254 413.20841231458724 178.94959762868498 414.68680726550997 179.14 416.23 C 179.17669784685697 416.64585862748834 179.17669784685697 417.0641413725117 179.14 417.48 C 179.17184126303775 417.62443561803747 179.1786065213476 417.77327130085416 179.16 417.92 Z" stroke-linecap="round" />
</g>
		<g transform="matrix(1 0 0 1 -92.28 -58.31)"  >
<path style="stroke: none; stroke-width: 1; stroke-dasharray: none; stroke-linecap: butt; stroke-dashoffset: 0; stroke-linejoin: miter; stroke-miterlimit: 4; fill: rgb(64,123,255); fill-rule: nonzero; opacity: 1;" vector-effect="non-scaling-stroke"  transform=" translate(-157.72, -206.61)" d="M 150.48 201.2 C 154.1338400981078 199.48395019209542 158.24206498445736 198.98619598231585 162.2 199.78 C 164.32999999999998 200.13 166.54999999999998 200.78 167.98999999999998 202.36 C 169.42999999999998 203.94000000000003 169.70999999999998 206.77 168.04999999999998 208.14000000000001 C 166.9785926506697 208.86522497263212 165.68781288567433 209.1941085839871 164.39999999999998 209.07000000000002 C 161.29999999999998 209.07000000000002 157.86999999999998 208.49 155.39999999999998 210.35000000000002 C 153.98999999999998 211.41000000000003 153.04999999999998 213.18000000000004 151.39999999999998 213.70000000000002 C 149.66582457002136 214.09882898295456 147.87669537996032 213.30411328349692 147.01 211.75000000000003 C 146.20907017566856 210.2088945773654 146.0300995628107 208.4191884487867 146.51 206.75000000000003 C 146.89514519206864 204.38200840962443 148.36337867311963 202.32944019304182 150.48 201.2 Z" stroke-linecap="round" />
</g>
		<g transform="matrix(1 0 0 1 -101.43 -94.63)"  >
<path style="stroke: none; stroke-width: 1; stroke-dasharray: none; stroke-linecap: butt; stroke-dashoffset: 0; stroke-linejoin: miter; stroke-miterlimit: 4; fill: rgb(64,123,255); fill-rule: nonzero; opacity: 1;" vector-effect="non-scaling-stroke"  transform=" translate(-148.57, -170.28)" d="M 142.32 185.43 C 144.5 188.55 148.73 187.52 150.7 185.62 C 152.67 183.72 153.48999999999998 180.96 154.25 178.34 C 155.97 172.34 157.71 166.04 156.43 159.93 C 156.1190611036478 158.07966102862335 155.30619881967897 156.3501668074131 154.08 154.93 C 152.81354985908337 153.50781885203196 150.88556704972714 152.86769807738403 149.02 153.25 C 146.88000000000002 153.81 145.55 155.9 144.59 157.9 C 141.7639509786166 163.7764327652786 140.28467918894015 170.20938606772842 140.26 176.73000000000005 C 140.26 179.73000000000002 140.6 182.94000000000003 142.32 185.44000000000003" stroke-linecap="round" />
</g>
		<g transform="matrix(1 0 0 1 -125.07 -87.61)"  >
<path style="stroke: none; stroke-width: 1; stroke-dasharray: none; stroke-linecap: butt; stroke-dashoffset: 0; stroke-linejoin: miter; stroke-miterlimit: 4; fill: rgb(64,123,255); fill-rule: nonzero; opacity: 1;" vector-effect="non-scaling-stroke"  transform=" translate(-124.93, -177.3)" d="M 136.33 189.9 C 138.6063359098315 186.93257391130365 139.26542793411443 183.03044954026498 138.09 179.48000000000002 C 136.90446072982144 175.96751243354788 134.76877381220632 172.8522478859731 131.92000000000002 170.48000000000002 C 128.6907963497966 167.6199553310114 124.93368940819494 165.41868471784875 120.86 164 C 119.27579858281905 163.3535501299662 117.56882588398862 163.06336477116503 115.86 163.15 C 114.13616418045633 163.24870608116728 112.5737495917995 164.1966458675706 111.69 165.68 C 110.52 167.9 111.69 170.59 112.84 172.78 C 114.96987204670955 176.65141439842222 117.4006883125905 180.34946500373763 120.10999999999999 183.83999999999997 C 122.28 186.65 124.78 189.42000000000002 128.11 190.68 C 131.44000000000003 191.94 134.88000000000002 191.8 136.64000000000001 189.5" stroke-linecap="round" />
</g>
		<g transform="matrix(1 0 0 1 -99.73 -46.83)"  >
<path style="stroke: none; stroke-width: 1; stroke-dasharray: none; stroke-linecap: butt; stroke-dashoffset: 0; stroke-linejoin: miter; stroke-miterlimit: 4; fill: rgb(38,50,56); fill-rule: nonzero; opacity: 1;" vector-effect="non-scaling-stroke"  transform=" translate(-150.27, -218.08)" d="M 142.17 232.4 C 142.28086566503472 231.93395112840105 142.34782490824082 231.4585405016378 142.36999999999998 230.98000000000002 C 142.46999999999997 229.98000000000002 142.58999999999997 228.66000000000003 142.73999999999998 227.12 C 142.93426095586386 225.2198557036783 143.2246328908221 223.33076932222576 143.60999999999999 221.46 C 144.11341895541133 219.18089996011096 144.8023818945474 216.9467871283494 145.67 214.78000000000003 C 146.51399505720005 212.6118203621307 147.6621658888426 210.57474308018428 149.07999999999998 208.73 C 150.23546687488525 207.22730815777402 151.71121830522247 206.0009313904336 153.39999999999998 205.14 C 154.5329441420013 204.5739387974442 155.7477340020779 204.1892553417533 157 204 C 157.47567225400357 203.98250356201498 157.94822537890246 203.91547474997256 158.41 203.8 C 157.93139384740041 203.74826812386146 157.44860615259958 203.74826812386146 156.97 203.8 C 155.66139416230286 203.91074689674724 154.3821799765223 204.24916334801196 153.19 204.8 C 151.411148145066 205.63882322392422 149.85046118139365 206.87778962929568 148.63 208.42000000000002 C 147.15210162613755 210.289037018071 145.96225563443167 212.36873950215747 145.1 214.59 C 144.23921628633732 216.79157467663174 143.57006621531758 219.06333916774378 143.1 221.38 C 142.7343150299053 223.27643213583977 142.48385625123666 225.19327665525026 142.34999999999997 227.12000000000003 C 142.23 228.76 142.18 230.12 142.16 231 C 142.1139136532559 231.46571171470268 142.11726567063138 231.93499414726955 142.17 232.4 Z" stroke-linecap="round" />
</g>
		<g transform="matrix(1 0 0 1 -104.14 -67.39)"  >
<path style="stroke: none; stroke-width: 1; stroke-dasharray: none; stroke-linecap: butt; stroke-dashoffset: 0; stroke-linejoin: miter; stroke-miterlimit: 4; fill: rgb(38,50,56); fill-rule: nonzero; opacity: 1;" vector-effect="non-scaling-stroke"  transform=" translate(-145.86, -197.52)" d="M 142.43 229.43 C 142.4598914185817 229.21101533739184 142.4598914185817 228.98898466260817 142.43 228.77 L 142.43 226.89000000000001 C 142.43 225.27 142.43 222.89000000000001 142.51000000000002 220.00000000000003 C 142.65 214.17000000000002 143.16000000000003 207.91000000000003 144.12000000000003 199.07000000000002 C 145.04000000000002 190.77 146.27000000000004 181.07000000000002 147.57000000000002 174.81000000000003 C 147.85000000000002 173.38000000000002 148.13000000000002 172.10000000000002 148.39000000000001 170.97000000000003 C 148.65 169.84000000000003 148.86 168.87000000000003 149.07000000000002 168.08000000000004 C 149.28000000000003 167.29000000000005 149.39000000000001 166.74000000000004 149.51000000000002 166.26000000000005 C 149.57222557733056 166.04844187064103 149.60914994118298 165.83025244787675 149.62000000000003 165.61000000000004 C 149.51715651362056 165.8059901108028 149.43985996767933 166.01435471290526 149.39000000000004 166.23000000000005 L 148.85000000000005 168.02000000000004 C 148.61000000000004 168.80000000000004 148.36000000000004 169.77000000000004 148.08000000000004 170.90000000000003 C 147.80000000000004 172.03000000000003 147.47000000000003 173.30000000000004 147.17000000000004 174.73000000000005 C 145.5565369114095 182.16268123135936 144.34478002534615 189.67690919424808 143.54000000000008 197.23999999999998 C 142.54000000000005 206.09000000000003 142.14000000000004 214.15000000000003 142.10000000000005 219.99000000000004 C 142.10000000000005 222.91000000000003 142.10000000000005 225.27000000000004 142.20000000000005 226.90000000000003 C 142.20000000000005 227.66000000000003 142.28000000000006 228.28000000000003 142.31000000000006 228.78000000000003 C 142.32946478686657 228.99995898249085 142.3696428891089 229.2175903696368 142.43 229.43 Z" stroke-linecap="round" />
</g>
		<g transform="matrix(1 0 0 1 -117.92 -72.78)"  >
<path style="stroke: none; stroke-width: 1; stroke-dasharray: none; stroke-linecap: butt; stroke-dashoffset: 0; stroke-linejoin: miter; stroke-miterlimit: 4; fill: rgb(38,50,56); fill-rule: nonzero; opacity: 1;" vector-effect="non-scaling-stroke"  transform=" translate(-132.08, -192.13)" d="M 142.47 213.88 C 142.52669542068668 213.21453872235588 142.52669542068668 212.5454612776441 142.47 211.88 C 142.4 210.62 142.22 208.79999999999998 141.87 206.57 C 141.44066301799234 203.95926411547708 140.86306207028568 201.37508415290515 140.14 198.82999999999993 C 139.29650067272493 195.6980967912597 138.21330456768356 192.63572755601933 136.9 189.67 C 134.65831750081642 184.20072082384348 131.43910574304167 179.185527769626 127.4 174.86999999999998 C 126.700619352287 174.1274233917017 125.95227715865431 173.4325342118999 125.16000000000001 172.78999999999996 C 124.82000000000001 172.49999999999997 124.52000000000001 172.20999999999995 124.16000000000001 171.97999999999996 L 123.29 171.37999999999997 C 122.7690085170501 171.00099704931705 122.21706314751776 170.66648470414592 121.64 170.37999999999997 C 123.54428740576893 171.8696392162971 125.35131203018992 173.4795946118071 127.05 175.19999999999996 C 130.95661176868393 179.55350357365973 134.09161330845967 184.54177463209467 136.32 189.94999999999993 C 137.6041870768813 192.90097072834718 138.68993457646283 195.93438220410115 139.57 199.02999999999994 C 140.31414200999404 201.55012892172445 140.92828520208863 204.1068337322921 141.41 206.6899999999999 C 141.82 208.89999999999998 142.04999999999998 210.68999999999997 142.19 211.94999999999996 C 142.23583378192436 212.59933400444254 142.3294201598048 213.24441153768998 142.47 213.88 Z" stroke-linecap="round" />
</g>
		<g transform="matrix(1 0 0 1 -107.28 -12.93)"  >
<polygon style="stroke: none; stroke-width: 1; stroke-dasharray: none; stroke-linecap: butt; stroke-dashoffset: 0; stroke-linejoin: miter; stroke-miterlimit: 4; fill: rgb(38,50,56); fill-rule: nonzero; opacity: 1;" vector-effect="non-scaling-stroke"  points="-15.27,-10.67 -13.72,10.67 13.7,10.67 15.26,-10.67 -15.27,-10.67 " />
</g>
		<g transform="matrix(1 0 0 1 -106.97 -27.82)"  >
<rect style="stroke: none; stroke-width: 1; stroke-dasharray: none; stroke-linecap: butt; stroke-dashoffset: 0; stroke-linejoin: miter; stroke-miterlimit: 4; fill: rgb(38,50,56); fill-rule: nonzero; opacity: 1;" vector-effect="non-scaling-stroke"  x="-18.225" y="-4.205" rx="0" ry="0" width="36.45" height="8.41" />
</g>
		<g transform="matrix(1 0 0 1 -107.28 -1.92)"  >
<polygon style="stroke: none; stroke-width: 1; stroke-dasharray: none; stroke-linecap: butt; stroke-dashoffset: 0; stroke-linejoin: miter; stroke-miterlimit: 4; fill: rgb(69,90,100); fill-rule: nonzero; opacity: 1;" vector-effect="non-scaling-stroke"  points="-17.92,-1.17 -17.92,1.17 -16.21,1.17 17.93,1.17 17.93,-1.17 -17.92,-1.17 " />
</g>
		<g transform="matrix(1 0 0 1 -107.07 1.3)"  >
<polygon style="stroke: none; stroke-width: 1; stroke-dasharray: none; stroke-linecap: butt; stroke-dashoffset: 0; stroke-linejoin: miter; stroke-miterlimit: 4; fill: rgb(69,90,100); fill-rule: nonzero; opacity: 1;" vector-effect="non-scaling-stroke"  points="-14.74,2.05 -16.42,-2.06 16.41,-2.06 14.45,2.05 -14.74,2.05 " />
</g>
		<g transform="matrix(1 0 0 1 -107.31 -16.67)"  >
<path style="stroke: none; stroke-width: 1; stroke-dasharray: none; stroke-linecap: butt; stroke-dashoffset: 0; stroke-linejoin: miter; stroke-miterlimit: 4; fill: rgb(224,224,224); fill-rule: nonzero; opacity: 1;" vector-effect="non-scaling-stroke"  transform=" translate(-142.69, -248.24)" d="M 157.47 248.28 C 157.47 248.28 157.47 248.35 157.34 248.48 L 156.93 249.01999999999998 L 155.34 251.01999999999998 L 155.26 251.11999999999998 L 155.2 251.01999999999998 L 151.26999999999998 245.58999999999997 L 151.49999999999997 245.58999999999997 L 147.62999999999997 251.05999999999997 L 147.50999999999996 251.23999999999998 L 147.37999999999997 251.07 C 145.94999999999996 249.38 144.37999999999997 247.54 142.79999999999995 245.62 L 143.05999999999995 245.62 L 142.80999999999995 245.94 L 138.70999999999995 251.07 L 138.56999999999996 251.23999999999998 L 138.44999999999996 251.05999999999997 L 134.57999999999996 245.59999999999997 L 134.80999999999995 245.59999999999997 L 130.04999999999995 251.01999999999995 L 129.95999999999995 251.11999999999995 L 129.89999999999995 251.00999999999993 L 128.40999999999994 248.49999999999994 L 128.02999999999994 247.83999999999995 C 127.97939977345305 247.76575420941785 127.9390364965375 247.6850276555867 127.90999999999994 247.59999999999994 C 127.96996941623875 247.66468595630803 128.0235514768509 247.73501241086151 128.06999999999994 247.80999999999995 L 128.48999999999992 248.44999999999993 L 130.05999999999992 250.90999999999994 L 129.9099999999999 250.90999999999994 L 134.58999999999992 245.41999999999993 L 134.70999999999992 245.27999999999994 L 134.81999999999994 245.42999999999995 C 135.99999999999994 247.07999999999996 137.30999999999995 248.91999999999996 138.71999999999994 250.86999999999995 L 138.44999999999993 250.86999999999995 L 142.53999999999994 245.71999999999994 L 142.78999999999994 245.40999999999994 L 142.91999999999993 245.23999999999995 L 143.05999999999992 245.39999999999995 C 144.6599999999999 247.31999999999994 146.1999999999999 249.16999999999996 147.6299999999999 250.86999999999995 L 147.36999999999992 250.86999999999995 L 151.26999999999992 245.41999999999996 L 151.38999999999993 245.25999999999996 L 151.49999999999994 245.41999999999996 L 155.33999999999995 250.90999999999997 L 155.19999999999996 250.90999999999997 C 155.89999999999995 250.07999999999996 156.45999999999995 249.40999999999997 156.85999999999996 248.90999999999997 L 157.30999999999995 248.39999999999998 C 157.35836412062872 248.3537708736613 157.4120780849388 248.31348540042876 157.47 248.28 Z" stroke-linecap="round" />
</g>
		<g transform="matrix(1 0 0 1 -106.98 -23.74)"  >
<path style="stroke: none; stroke-width: 1; stroke-dasharray: none; stroke-linecap: butt; stroke-dashoffset: 0; stroke-linejoin: miter; stroke-miterlimit: 4; fill: rgb(69,90,100); fill-rule: nonzero; opacity: 1;" vector-effect="non-scaling-stroke"  transform=" translate(-143.02, -241.17)" d="M 158.36 241.17 C 158.36 241.26 151.49 241.33999999999997 143.02 241.33999999999997 C 134.55 241.33999999999997 127.67000000000002 241.25999999999996 127.67000000000002 241.17 C 127.67000000000002 241.08 134.54 241 143 241 C 151.46 241 158.36 241.07 158.36 241.17 Z" stroke-linecap="round" />
</g>
		<g transform="matrix(1 0 0 1 -106.93 -0.52)"  >
<path style="stroke: none; stroke-width: 1; stroke-dasharray: none; stroke-linecap: butt; stroke-dashoffset: 0; stroke-linejoin: miter; stroke-miterlimit: 4; fill: rgb(38,50,56); fill-rule: nonzero; opacity: 1;" vector-effect="non-scaling-stroke"  transform=" translate(-143.07, -264.39)" d="M 159.75 264.39 C 159.75 264.49 152.28 264.56 143.07 264.56 C 133.85999999999999 264.56 126.39999999999999 264.49 126.39999999999999 264.39 C 126.39999999999999 264.28999999999996 133.85999999999999 264.21999999999997 143.07 264.21999999999997 C 152.28 264.21999999999997 159.75 264.3 159.75 264.39 Z" stroke-linecap="round" />
</g>
		<g transform="matrix(-1 0 0 -1 91.74 1.88)"  >
<rect style="stroke: none; stroke-width: 1; stroke-dasharray: none; stroke-linecap: butt; stroke-dashoffset: 0; stroke-linejoin: miter; stroke-miterlimit: 4; fill: rgb(38,50,56); fill-rule: nonzero; opacity: 1;" vector-effect="non-scaling-stroke"  x="-40.14" y="-1.95" rx="0" ry="0" width="80.28" height="3.9" />
</g>
		<g transform="matrix(1 0 0 1 121.22 -24.38)"  >
<polygon style="stroke: none; stroke-width: 1; stroke-dasharray: none; stroke-linecap: butt; stroke-dashoffset: 0; stroke-linejoin: miter; stroke-miterlimit: 4; fill: rgb(38,50,56); fill-rule: nonzero; opacity: 1;" vector-effect="non-scaling-stroke"  points="23.1,28.21 38.16,-28.21 -24.53,-28.21 -38.16,28.21 23.1,28.21 " />
</g>
		<g transform="matrix(1 0 0 1 121.34 -25.21)"  >
<polygon style="stroke: none; stroke-width: 1; stroke-dasharray: none; stroke-linecap: butt; stroke-dashoffset: 0; stroke-linejoin: miter; stroke-miterlimit: 4; fill: rgb(69,90,100); fill-rule: nonzero; opacity: 1;" vector-effect="non-scaling-stroke"  points="-34.52,24.77 21.47,24.77 34.51,-24.77 -21.78,-24.77 -34.52,24.77 " />
</g>
		<g transform="matrix(1 0 0 1 121.36 -25.19)"  >
<path style="stroke: none; stroke-width: 1; stroke-dasharray: none; stroke-linecap: butt; stroke-dashoffset: 0; stroke-linejoin: miter; stroke-miterlimit: 4; fill: rgb(38,50,56); fill-rule: nonzero; opacity: 1;" vector-effect="non-scaling-stroke"  transform=" translate(-371.36, -239.72)" d="M 393.2 265 L 336.2 265 L 349.2 214.45 L 406.52 214.45 Z M 337.46 264 L 392.46 264 L 405.22999999999996 215.45 L 350 215.45 Z" stroke-linecap="round" />
</g>
		<g transform="matrix(1 0 0 1 -111.82 111.57)"  >
<rect style="stroke: none; stroke-width: 1; stroke-dasharray: none; stroke-linecap: butt; stroke-dashoffset: 0; stroke-linejoin: miter; stroke-miterlimit: 4; fill: rgb(69,90,100); fill-rule: nonzero; opacity: 1;" vector-effect="non-scaling-stroke"  x="-2.025" y="-96.78" rx="0" ry="0" width="4.05" height="193.56" />
</g>
		<g transform="matrix(1 0 0 1 -107.76 111.84)"  >
<rect style="stroke: none; stroke-width: 1; stroke-dasharray: none; stroke-linecap: butt; stroke-dashoffset: 0; stroke-linejoin: miter; stroke-miterlimit: 4; fill: rgb(38,50,56); fill-rule: nonzero; opacity: 1;" vector-effect="non-scaling-stroke"  x="-2.025" y="-96.5" rx="0" ry="0" width="4.05" height="193" />
</g>
		<g transform="matrix(1 0 0 1 137.95 111.57)"  >
<rect style="stroke: none; stroke-width: 1; stroke-dasharray: none; stroke-linecap: butt; stroke-dashoffset: 0; stroke-linejoin: miter; stroke-miterlimit: 4; fill: rgb(69,90,100); fill-rule: nonzero; opacity: 1;" vector-effect="non-scaling-stroke"  x="-2.025" y="-96.78" rx="0" ry="0" width="4.05" height="193.56" />
</g>
		<g transform="matrix(1 0 0 1 142 111.84)"  >
<rect style="stroke: none; stroke-width: 1; stroke-dasharray: none; stroke-linecap: butt; stroke-dashoffset: 0; stroke-linejoin: miter; stroke-miterlimit: 4; fill: rgb(38,50,56); fill-rule: nonzero; opacity: 1;" vector-effect="non-scaling-stroke"  x="-2.025" y="-96.5" rx="0" ry="0" width="4.05" height="193" />
</g>
		<g transform="matrix(1 0 0 1 19.88 11.48)"  >
<rect style="stroke: none; stroke-width: 1; stroke-dasharray: none; stroke-linecap: butt; stroke-dashoffset: 0; stroke-linejoin: miter; stroke-miterlimit: 4; fill: rgb(69,90,100); fill-rule: nonzero; opacity: 1;" vector-effect="non-scaling-stroke"  x="-180.715" y="-7.94" rx="0" ry="0" width="361.43" height="15.88" />
</g>
		<g transform="matrix(1 0 0 1 70.16 32.56)"  >
<rect style="stroke: none; stroke-width: 1; stroke-dasharray: none; stroke-linecap: butt; stroke-dashoffset: 0; stroke-linejoin: miter; stroke-miterlimit: 4; fill: rgb(69,90,100); fill-rule: nonzero; opacity: 1;" vector-effect="non-scaling-stroke"  x="-67.785" y="-13.14" rx="0" ry="0" width="135.57" height="26.28" />
</g>
		<g transform="matrix(1 0 0 1 73.21 30.74)"  >
<path style="stroke: none; stroke-width: 1; stroke-dasharray: none; stroke-linecap: butt; stroke-dashoffset: 0; stroke-linejoin: miter; stroke-miterlimit: 4; fill: rgb(38,50,56); fill-rule: nonzero; opacity: 1;" vector-effect="non-scaling-stroke"  transform=" translate(-323.21, -295.65)" d="M 326.21 295.65 C 326.21 297.30685424949235 324.86685424949235 298.65 323.21 298.65 C 321.5531457505076 298.65 320.21 297.30685424949235 320.21 295.65 C 320.21 293.9931457505076 321.5531457505076 292.65 323.21 292.65 C 324.86685424949235 292.65 326.21 293.9931457505076 326.21 295.65 Z" stroke-linecap="round" />
</g>
		<g transform="matrix(1 0 0 1 62.58 19.42)"  >
<path style="stroke: none; stroke-width: 1; stroke-dasharray: none; stroke-linecap: butt; stroke-dashoffset: 0; stroke-linejoin: miter; stroke-miterlimit: 4; fill: rgb(38,50,56); fill-rule: nonzero; opacity: 1;" vector-effect="non-scaling-stroke"  transform=" translate(-312.58, -284.33)" d="M 417.48 284.33 C 417.48 284.46999999999997 370.48 284.59 312.58000000000004 284.59 C 254.68000000000006 284.59 207.68000000000004 284.46999999999997 207.68000000000004 284.33 C 207.68000000000004 284.19 254.68000000000004 284.07 312.58000000000004 284.07 C 370.48 284.07 417.48 284.19 417.48 284.33 Z" stroke-linecap="round" />
</g>
		<g transform="matrix(1 0 0 1 49.49 -155.11)"  >
<path style="stroke: none; stroke-width: 1; stroke-dasharray: none; stroke-linecap: butt; stroke-dashoffset: 0; stroke-linejoin: miter; stroke-miterlimit: 4; fill: rgb(235,153,110); fill-rule: nonzero; opacity: 1;" vector-effect="non-scaling-stroke"  transform=" translate(-299.5, -109.8)" d="M 292.38 97.52 C 292.92 97.52 300.23 98.74 300.23 98.74 L 310.12 111.19999999999999 L 311.61 113.55999999999999 L 298.27000000000004 122.08999999999999 L 292.38000000000005 113.36999999999999 L 287.38000000000005 110.11999999999999 C 288.8974817213574 108.9607291316221 290.93617395457505 108.7483653573286 292.66 109.57 C 294.6312626596405 110.39883111143206 296.75171610764784 110.8140723965956 298.89000000000004 110.78999999999999 L 297.13000000000005 105.78999999999999 L 291.71000000000004 104.71 Z" stroke-linecap="round" />
</g>
		<g transform="matrix(1 0 0 1 39.95 -160.51)"  >
<path style="stroke: none; stroke-width: 1; stroke-dasharray: none; stroke-linecap: butt; stroke-dashoffset: 0; stroke-linejoin: miter; stroke-miterlimit: 4; fill: rgb(38,50,56); fill-rule: nonzero; opacity: 1;" vector-effect="non-scaling-stroke"  transform=" translate(-289.95, -104.4)" d="M 293 88.8 C 293.4195577286309 88.69018615428038 293.8660081941857 88.76358849404645 294.22832095312805 89.00195215124535 C 294.59063371207037 89.24031580844425 294.8347648753594 89.6212434876544 294.9 90.05 C 295.71 95.16 298.15999999999997 110.53999999999999 298.9 115.05 C 299.0292952522164 115.79422896689957 298.5695577520958 116.51419524067332 297.84 116.71 L 286.07 120 C 285.65895624798696 120.11722423188964 285.21718791841386 120.04843577056847 284.86124691126145 119.81178310094822 C 284.50530590410904 119.57513043132795 284.2709465635033 119.1943853605843 284.21999999999997 118.77 L 281 93.24 C 280.900296158934 92.46678604426731 281.39415152046337 91.74103338254154 282.15 91.55 Z" stroke-linecap="round" />
</g>
		<g transform="matrix(1 0 0 1 39.43 -161.23)"  >
<path style="stroke: none; stroke-width: 1; stroke-dasharray: none; stroke-linecap: butt; stroke-dashoffset: 0; stroke-linejoin: miter; stroke-miterlimit: 4; fill: rgb(235,235,235); fill-rule: nonzero; opacity: 1;" vector-effect="non-scaling-stroke"  transform=" translate(-289.43, -103.68)" d="M 285.1 116.85 L 297.1 113.5 L 293.92 92.26 C 293.83446814755104 91.68134662061772 293.50581817641154 91.16679064978072 293.0167798628975 90.84585925653715 C 292.5277415493835 90.52492786329358 291.924897755541 90.42819105086112 291.36 90.58 L 281.75 93.13 Z" stroke-linecap="round" />
</g>
		<g transform="matrix(1 0 0 1 44.68 -160.84)"  >
<path style="stroke: none; stroke-width: 1; stroke-dasharray: none; stroke-linecap: butt; stroke-dashoffset: 0; stroke-linejoin: miter; stroke-miterlimit: 4; fill: rgb(235,153,110); fill-rule: nonzero; opacity: 1;" vector-effect="non-scaling-stroke"  transform=" translate(-294.68, -104.07)" d="M 296.85 101.31 L 291.46000000000004 105.31 C 291.46000000000004 105.31 291.91 106.73 292.73 106.83 C 294.4766011937296 106.6016356712356 296.20211437297974 106.23379371441871 297.89000000000004 105.73 Z" stroke-linecap="round" />
</g>
		<g transform="matrix(1 0 0 1 44.15 -163.66)"  >
<path style="stroke: none; stroke-width: 1; stroke-dasharray: none; stroke-linecap: butt; stroke-dashoffset: 0; stroke-linejoin: miter; stroke-miterlimit: 4; fill: rgb(235,153,110); fill-rule: nonzero; opacity: 1;" vector-effect="non-scaling-stroke"  transform=" translate(-294.15, -101.25)" d="M 296.2 98.08 L 290.55 100.56 C 290.55 100.56 290.19 102.4 292.3 102.14 L 290.41 103.5 C 290.41 103.5 290.88000000000005 104.32 293.24 104.42 C 295.59999999999997 104.52000000000001 297.89 101.24 297.89 101.24 Z" stroke-linecap="round" />
</g>
		<g transform="matrix(1 0 0 1 47.09 -161.78)"  >
<path style="stroke: none; stroke-width: 1; stroke-dasharray: none; stroke-linecap: butt; stroke-dashoffset: 0; stroke-linejoin: miter; stroke-miterlimit: 4; fill: rgb(209,115,74); fill-rule: nonzero; opacity: 1;" vector-effect="non-scaling-stroke"  transform=" translate(-297.1, -103.13)" d="M 301.81 104.37 C 301.81 104.44 301.12 104.31 300.37 103.61 C 299.9568769099047 103.2232218361967 299.5228945467973 102.85934431636055 299.07 102.52 C 298.55264215279544 102.13923693881365 297.874162996284 102.05584843913068 297.28 102.3 C 295.7114223989835 103.2032893899256 294.0728193577266 103.97911776864315 292.38 104.61999999999999 C 293.84278477001607 103.5090071381903 295.4261081228418 102.56639302347835 297.1 101.80999999999999 C 297.48304697219015 101.65397052089638 297.9014442684849 101.60556091636641 298.31 101.66999999999999 C 298.67074915726 101.75489351967258 299.01079508609894 101.91131464693848 299.31 102.12999999999998 C 299.7780640619476 102.49089337563005 300.2070679928169 102.89978774723988 300.59 103.34999999999998 C 300.9724932504054 103.71791111703232 301.380146249505 104.05873575562377 301.81 104.37 Z" stroke-linecap="round" />
</g>
		<g transform="matrix(1 0 0 1 49.81 -150.71)"  >
<path style="stroke: none; stroke-width: 1; stroke-dasharray: none; stroke-linecap: butt; stroke-dashoffset: 0; stroke-linejoin: miter; stroke-miterlimit: 4; fill: rgb(209,115,74); fill-rule: nonzero; opacity: 1;" vector-effect="non-scaling-stroke"  transform=" translate(-299.81, -114.21)" d="M 300.7 118.45 C 298.7200706903331 116.05845229333039 298.3654824476909 112.71350320440558 299.8 109.96000000000001 C 299.5262131413929 111.38267659113774 299.42215278560366 112.8328080008458 299.49 114.27999999999999 C 299.72511132131143 115.71338921567722 300.1313476284164 117.11339367900607 300.7 118.45 Z" stroke-linecap="round" />
</g>
		<g transform="matrix(1 0 0 1 46 -164.18)"  >
<path style="stroke: none; stroke-width: 1; stroke-dasharray: none; stroke-linecap: butt; stroke-dashoffset: 0; stroke-linejoin: miter; stroke-miterlimit: 4; fill: rgb(209,115,74); fill-rule: nonzero; opacity: 1;" vector-effect="non-scaling-stroke"  transform=" translate(-296, -100.73)" d="M 300 100.57 C 299.93 100.63 299.63 100.19999999999999 298.91 99.97 C 297.9469337607585 99.70115111549977 296.9169139969248 99.81958544374545 296.04 100.3 C 294.98 100.81 294.04 101.46 293.29 101.77 C 292.54 102.08 292.01000000000005 102.14999999999999 292 102.08999999999999 C 291.98999999999995 102.02999999999999 292.44 101.85 293.12 101.43999999999998 C 293.8 101.02999999999997 294.68 100.36999999999999 295.83 99.82999999999998 C 296.3726638663493 99.55836723658688 296.9643736427517 99.39853758434025 297.57 99.35999999999999 C 298.07458932219396 99.33037227549583 298.5788736605652 99.42299592948238 299.04 99.62999999999998 C 299.79 100 300 100.55 300 100.57 Z" stroke-linecap="round" />
</g>
		<g transform="matrix(1 0 0 1 64.22 -108.34)"  >
<path style="stroke: none; stroke-width: 1; stroke-dasharray: none; stroke-linecap: butt; stroke-dashoffset: 0; stroke-linejoin: miter; stroke-miterlimit: 4; fill: rgb(64,123,255); fill-rule: nonzero; opacity: 1;" vector-effect="non-scaling-stroke"  transform=" translate(-314.22, -156.57)" d="M 299.53 136 L 328.91999999999996 154.87 L 321.12999999999994 177.15 C 321.12999999999994 177.15 301.0199999999999 170.94 301.38999999999993 170.29 C 301.75999999999993 169.64 299.53 136 299.53 136 Z" stroke-linecap="round" />
</g>
		<g transform="matrix(1 0 0 1 36.12 189.34)"  >
<path style="stroke: none; stroke-width: 1; stroke-dasharray: none; stroke-linecap: butt; stroke-dashoffset: 0; stroke-linejoin: miter; stroke-miterlimit: 4; fill: rgb(38,50,56); fill-rule: nonzero; opacity: 1;" vector-effect="non-scaling-stroke"  transform=" translate(-286.12, -454.25)" d="M 291.93 437.58 L 287.3 458.87 C 287.3 458.87 307.39 470.72 306.92 474.73 L 265.32 467.25 L 271.15999999999997 433.78 Z" stroke-linecap="round" />
</g>
		<g transform="matrix(1 0 0 1 36.16 204.4)"  >
<path style="stroke: none; stroke-width: 1; stroke-dasharray: none; stroke-linecap: butt; stroke-dashoffset: 0; stroke-linejoin: miter; stroke-miterlimit: 4; fill: rgb(69,90,100); fill-rule: nonzero; opacity: 1;" vector-effect="non-scaling-stroke"  transform=" translate(-286.16, -469.31)" d="M 265.32 467.25 L 266.04 463.9 L 305.66 472.33 C 305.66 472.33 307.36 473.46999999999997 306.92 474.72999999999996 Z" stroke-linecap="round" />
</g>
		<g transform="matrix(1 0 0 1 -5.2 192.01)"  >
<path style="stroke: none; stroke-width: 1; stroke-dasharray: none; stroke-linecap: butt; stroke-dashoffset: 0; stroke-linejoin: miter; stroke-miterlimit: 4; fill: rgb(38,50,56); fill-rule: nonzero; opacity: 1;" vector-effect="non-scaling-stroke"  transform=" translate(-244.8, -456.93)" d="M 244.61 439.92 L 243.92000000000002 461.69 C 243.92000000000002 461.69 265.83000000000004 469.69 266.09000000000003 473.74 L 223.82000000000002 473.93 L 223.50000000000003 439.93 Z" stroke-linecap="round" />
</g>
		<g transform="matrix(1 0 0 1 -5.04 207.3)"  >
<path style="stroke: none; stroke-width: 1; stroke-dasharray: none; stroke-linecap: butt; stroke-dashoffset: 0; stroke-linejoin: miter; stroke-miterlimit: 4; fill: rgb(69,90,100); fill-rule: nonzero; opacity: 0.6000000000000001;" vector-effect="non-scaling-stroke"  transform=" translate(-244.96, -472.22)" d="M 223.82 473.93 L 223.92 470.5 L 264.40999999999997 471.61 C 264.40999999999997 471.61 266.29999999999995 472.42 266.09 473.74 Z" stroke-linecap="round" />
</g>
		<g transform="matrix(1 0 0 1 20.6 -167.5)"  >
<path style="stroke: none; stroke-width: 1; stroke-dasharray: none; stroke-linecap: butt; stroke-dashoffset: 0; stroke-linejoin: miter; stroke-miterlimit: 4; fill: rgb(235,153,110); fill-rule: nonzero; opacity: 1;" vector-effect="non-scaling-stroke"  transform=" translate(-270.6, -97.41)" d="M 250.74 82.86 L 255.05 132.86 L 280.05 130.86 C 280.2 127.94000000000001 279.99 116.64000000000001 279.99 116.64000000000001 C 279.99 116.64000000000001 290.40000000000003 115.02000000000001 290.53000000000003 104.64000000000001 C 290.59000000000003 99.58000000000001 289.87 89.14000000000001 289.11 79.73000000000002 C 288.29448098553206 69.28110673325739 279.2736123428482 61.40228894829259 268.81 62 L 268.81 62 C 263.6217445780108 62.30240033115622 258.7758947262282 64.68869045964999 255.37311303324708 68.61686013953857 C 251.97033134026594 72.54502981942716 250.29945547735184 77.68164497087653 250.74 82.86 Z" stroke-linecap="round" />
</g>
		<g transform="matrix(1 0 0 1 23.23 -149.01)"  >
<path style="stroke: none; stroke-width: 1; stroke-dasharray: none; stroke-linecap: butt; stroke-dashoffset: 0; stroke-linejoin: miter; stroke-miterlimit: 4; fill: rgb(209,115,74); fill-rule: nonzero; opacity: 1;" vector-effect="non-scaling-stroke"  transform=" translate(-273.23, -115.91)" d="M 280 116.45 C 275.1939998356031 116.53725884644595 270.47056212538496 115.19367229070222 266.43 112.59 C 266.43 112.59 269.64 120.08 280.02 119.14 Z" stroke-linecap="round" />
</g>
		<g transform="matrix(1 0 0 1 33.61 -177.83)"  >
<path style="stroke: none; stroke-width: 1; stroke-dasharray: none; stroke-linecap: butt; stroke-dashoffset: 0; stroke-linejoin: miter; stroke-miterlimit: 4; fill: rgb(38,50,56); fill-rule: nonzero; opacity: 1;" vector-effect="non-scaling-stroke"  transform=" translate(-283.61, -87.08)" d="M 285.1 87 C 285.105874716437 87.8076421392352 284.4672093490322 88.47291856361514 283.66 88.5 C 283.2782546038507 88.5302069983424 282.900490744869 88.40495120996573 282.61241670755834 88.15265107271328 C 282.3243426702477 87.90035093546082 282.1503807539024 87.54239591407391 282.13000000000005 87.16 C 282.1239533918148 86.35609929055758 282.75672769963296 85.69235001662248 283.56000000000006 85.66 C 283.9427596981925 85.62977739062346 284.32159390020325 85.75474513437584 284.61124446820577 86.00677874549493 C 284.9008950362083 86.25881235661402 285.0770265807401 86.61673688582721 285.1 87 Z" stroke-linecap="round" />
</g>
		<g transform="matrix(1 0 0 1 33.96 -180.78)"  >
<path style="stroke: none; stroke-width: 1; stroke-dasharray: none; stroke-linecap: butt; stroke-dashoffset: 0; stroke-linejoin: miter; stroke-miterlimit: 4; fill: rgb(38,50,56); fill-rule: nonzero; opacity: 1;" vector-effect="non-scaling-stroke"  transform=" translate(-283.96, -84.14)" d="M 286.9 84.9 C 286.71999999999997 85.10000000000001 285.59 84.26 283.98999999999995 84.27000000000001 C 282.38999999999993 84.28000000000002 281.21999999999997 85.07000000000001 281.04999999999995 84.88000000000001 C 280.87999999999994 84.69000000000001 281.15 84.44000000000001 281.65999999999997 84.07000000000001 C 282.3537642842315 83.59158659913068 283.177279183216 83.33685529563122 284.02 83.34 C 284.85339739160173 83.33702459390094 285.66605465616635 83.59973707166967 286.34 84.09 C 286.83 84.46 287 84.82 286.9 84.9 Z" stroke-linecap="round" />
</g>
		<g transform="matrix(1 0 0 1 18.26 -177.83)"  >
<path style="stroke: none; stroke-width: 1; stroke-dasharray: none; stroke-linecap: butt; stroke-dashoffset: 0; stroke-linejoin: miter; stroke-miterlimit: 4; fill: rgb(38,50,56); fill-rule: nonzero; opacity: 1;" vector-effect="non-scaling-stroke"  transform=" translate(-268.26, -87.08)" d="M 269.74 87 C 269.75135027982907 87.80599054511302 269.1156130249663 88.47284780545857 268.31 88.5 C 267.9272403018075 88.53022260937655 267.5484060997968 88.40525486562417 267.2587555317943 88.15322125450508 C 266.9691049637917 87.901187643386 266.7929734192599 87.54326311417279 266.77 87.16 C 266.76935531189247 86.35444969286638 267.40509412299946 85.69222176462993 268.21 85.66 C 268.5911046976008 85.63258378770924 268.9673312755825 85.75882431446162 269.2547665729304 86.01056503240032 C 269.54220187027835 86.26230575033902 269.7169372767497 86.61860709232333 269.74 87 Z" stroke-linecap="round" />
</g>
		<g transform="matrix(1 0 0 1 18.24 -180.48)"  >
<path style="stroke: none; stroke-width: 1; stroke-dasharray: none; stroke-linecap: butt; stroke-dashoffset: 0; stroke-linejoin: miter; stroke-miterlimit: 4; fill: rgb(38,50,56); fill-rule: nonzero; opacity: 1;" vector-effect="non-scaling-stroke"  transform=" translate(-268.24, -84.43)" d="M 271.18 85.2 C 271 85.39 269.87 84.56 268.27 84.57000000000001 C 266.66999999999996 84.58000000000001 265.5 85.37 265.33 85.17 C 265.15999999999997 84.97 265.43 84.74 265.94 84.37 C 266.6299420196342 83.88376196004388 267.45601593432787 83.6282390966005 268.3 83.64 C 269.1339435454481 83.63349441149215 269.9476783382903 83.89655522814373 270.62 84.39 C 271.11 84.76 271.27 85.11 271.18 85.2 Z" stroke-linecap="round" />
</g>
		<g transform="matrix(1 0 0 1 28.65 -174.47)"  >
<path style="stroke: none; stroke-width: 1; stroke-dasharray: none; stroke-linecap: butt; stroke-dashoffset: 0; stroke-linejoin: miter; stroke-miterlimit: 4; fill: rgb(38,50,56); fill-rule: nonzero; opacity: 1;" vector-effect="non-scaling-stroke"  transform=" translate(-278.65, -90.44)" d="M 277 97.06 C 277.8439459846893 96.79662146087418 278.71725646577016 96.63875379698649 279.6 96.59 C 280 96.59 280.39000000000004 96.47 280.46000000000004 96.19 C 280.4925780653891 95.76877341475164 280.3985569651078 95.34741959497222 280.19000000000005 94.98 C 279.80000000000007 93.98 279.40000000000003 92.98 278.9800000000001 91.87 C 277.30000000000007 87.44 276.0900000000001 83.80000000000001 276.2700000000001 83.74000000000001 C 276.4500000000001 83.68 277.9500000000001 87.21000000000001 279.6300000000001 91.63000000000001 C 280.0300000000001 92.73 280.42000000000013 93.77000000000001 280.7800000000001 94.76 C 281.03830906345297 95.25475971883579 281.1161041393229 95.82407822861101 281.0000000000001 96.37 C 280.87968396877164 96.66334679188621 280.62738258874646 96.88225534220219 280.3200000000001 96.96000000000001 C 280.0953594577696 97.02334872154574 279.86338218536724 97.05696861609681 279.6300000000001 97.06 C 278.7570580193306 97.17428574814936 277.87294198066957 97.17428574814936 277 97.06 Z" stroke-linecap="round" />
</g>
		<g transform="matrix(1 0 0 1 24.69 -164.42)"  >
<path style="stroke: none; stroke-width: 1; stroke-dasharray: none; stroke-linecap: butt; stroke-dashoffset: 0; stroke-linejoin: miter; stroke-miterlimit: 4; fill: rgb(38,50,56); fill-rule: nonzero; opacity: 1;" vector-effect="non-scaling-stroke"  transform=" translate(-274.69, -100.49)" d="M 272.28 98.17 C 272.53999999999996 98.17 272.53999999999996 99.89 274.03 101.17 C 275.52 102.45 277.35999999999996 102.17 277.38 102.46000000000001 C 277.40000000000003 102.75000000000001 276.96999999999997 102.79 276.18 102.81 C 275.16117566953017 102.81609704125226 274.1729811420809 102.46190545435289 273.39 101.81 C 272.61370524782865 101.19377135306193 272.11376370196143 100.29459591085477 272 99.31 C 272 98.59 272.16 98.16 272.28 98.17 Z" stroke-linecap="round" />
</g>
		<g transform="matrix(1 0 0 1 17.95 -186.1)"  >
<path style="stroke: none; stroke-width: 1; stroke-dasharray: none; stroke-linecap: butt; stroke-dashoffset: 0; stroke-linejoin: miter; stroke-miterlimit: 4; fill: rgb(38,50,56); fill-rule: nonzero; opacity: 1;" vector-effect="non-scaling-stroke"  transform=" translate(-267.95, -78.82)" d="M 271.6 78.93 C 271.44 79.37 269.84000000000003 79.16000000000001 267.96000000000004 79.39 C 266.08000000000004 79.61999999999999 264.57000000000005 80.13 264.32000000000005 79.74 C 264.21000000000004 79.55 264.47 79.14 265.09000000000003 78.74 C 266.7419315053244 77.68793102717311 268.7887363691633 77.4625608165338 270.63000000000005 78.13 C 271.32 78.38 271.66 78.73 271.6 78.93 Z" stroke-linecap="round" />
</g>
		<g transform="matrix(1 0 0 1 33.61 -185.37)"  >
<path style="stroke: none; stroke-width: 1; stroke-dasharray: none; stroke-linecap: butt; stroke-dashoffset: 0; stroke-linejoin: miter; stroke-miterlimit: 4; fill: rgb(38,50,56); fill-rule: nonzero; opacity: 1;" vector-effect="non-scaling-stroke"  transform=" translate(-283.61, -79.54)" d="M 286.32 80.27 C 286.04 80.64 284.93 80.27 283.61 80.27 C 282.29 80.27 281.16 80.52 280.90000000000003 80.14 C 280.79 79.95 280.97 79.59 281.46000000000004 79.24 C 282.80820950086064 78.40175636115637 284.52834451332467 78.45699005421714 285.82000000000005 79.38 C 286.29 79.72 286.44 80.1 286.32 80.27 Z" stroke-linecap="round" />
</g>
		<g transform="matrix(1 0 0 1 5.2 -184.89)"  >
<path style="stroke: none; stroke-width: 1; stroke-dasharray: none; stroke-linecap: butt; stroke-dashoffset: 0; stroke-linejoin: miter; stroke-miterlimit: 4; fill: rgb(38,50,56); fill-rule: nonzero; opacity: 1;" vector-effect="non-scaling-stroke"  transform=" translate(-255.2, -80.03)" d="M 262 71.45 L 261.94 71.45 C 260.2959027060733 72.76536024208113 259.22154862111404 74.66338579217587 258.94 76.75 L 258.94 76.96 C 258.53 79.96 258.61 82.96 258.17 85.96 C 257.73 88.96 256.71000000000004 91.96 254.51000000000002 93.96 C 253.61 94.8 252.02 95.38 251.28000000000003 94.39999999999999 C 251.02666042305455 93.99245731056301 250.89804745492822 93.51971775204463 250.91000000000003 93.03999999999999 C 250.35000000000002 85.86999999999999 248.39000000000001 79.50999999999999 248.41000000000003 72.03999999999999 C 248.3880100273983 70.00234824507292 249.35295897225964 68.07990169855381 251 66.88 C 252.57 65.75999999999999 254.48 64.58999999999999 256.23 65.42 C 257.98 66.25000000000001 260.23 69.51 261.58000000000004 70.89" stroke-linecap="round" />
</g>
		<g transform="matrix(1 0 0 1 0.98 -172.24)"  >
<path style="stroke: none; stroke-width: 1; stroke-dasharray: none; stroke-linecap: butt; stroke-dashoffset: 0; stroke-linejoin: miter; stroke-miterlimit: 4; fill: rgb(235,153,110); fill-rule: nonzero; opacity: 1;" vector-effect="non-scaling-stroke"  transform=" translate(-250.98, -92.67)" d="M 254.25 87.57 C 254.07 87.49 247.1 85.44999999999999 247.32 92.57 C 247.54 99.69 254.65 97.99 254.65 97.78999999999999 C 254.65 97.58999999999999 254.25 87.57 254.25 87.57 Z" stroke-linecap="round" />
</g>
		<g transform="matrix(1 0 0 1 0.77 -172.26)"  >
<path style="stroke: none; stroke-width: 1; stroke-dasharray: none; stroke-linecap: butt; stroke-dashoffset: 0; stroke-linejoin: miter; stroke-miterlimit: 4; fill: rgb(209,115,74); fill-rule: nonzero; opacity: 1;" vector-effect="non-scaling-stroke"  transform=" translate(-250.77, -92.65)" d="M 252.39 95.16 C 252.39 95.16 252.26999999999998 95.25 252.07 95.35 C 251.77827290410616 95.4868738519867 251.4447206775808 95.50480676739129 251.14 95.39999999999999 C 250.18685867123637 94.83789949600447 249.60996100005295 93.80636061375593 249.63 92.69999999999999 C 249.5932019678993 92.08923421454952 249.6922441157445 91.47790509509107 249.92 90.90999999999998 C 250.03627509847274 90.44839978806736 250.3731557388017 90.07408796547963 250.82 89.90999999999998 C 251.11172317355192 89.82540575995553 251.4231379190344 89.95412385475495 251.57 90.21999999999998 C 251.67 90.41999999999999 251.63 90.55999999999999 251.67 90.56999999999998 C 251.70999999999998 90.57999999999997 251.80999999999997 90.44999999999997 251.75 90.15999999999998 C 251.70393793367785 89.9830327068895 251.59791020913326 89.82752537755744 251.45 89.71999999999998 C 251.24722391709557 89.58426940675895 251.00181770049045 89.52736361740124 250.76 89.55999999999999 C 250.17170198211176 89.70400364077584 249.6969967889456 90.1372663170783 249.5 90.71 C 249.21690924132318 91.3367795191849 249.09323712593073 92.02384682692079 249.14 92.71 C 249.23 94.14999999999999 250.01 95.46 251.04 95.71 C 251.43204542700943 95.80910440972607 251.84788454618445 95.72446458900903 252.17 95.47999999999999 C 252.39 95.33 252.42 95.17 252.39 95.16 Z" stroke-linecap="round" />
</g>
		<g transform="matrix(1 0 0 1 26.35 -197)"  >
<path style="stroke: none; stroke-width: 1; stroke-dasharray: none; stroke-linecap: butt; stroke-dashoffset: 0; stroke-linejoin: miter; stroke-miterlimit: 4; fill: rgb(38,50,56); fill-rule: nonzero; opacity: 1;" vector-effect="non-scaling-stroke"  transform=" translate(-276.35, -67.91)" d="M 256 66.52 C 254.25 63.669999999999995 259.05 59.58 262.56 58.519999999999996 C 266.07 57.459999999999994 270.7 59.12 274.19 60.279999999999994 C 276.4 61.00999999999999 278.59 62.029999999999994 280.92 61.93999999999999 C 282.47067748814436 61.77478579560959 283.9895482010158 61.38749060274881 285.43 60.78999999999999 C 286.8689691454721 60.18137748023718 288.41768450142195 59.87503817906028 289.98 59.88999999999999 C 291.5701956844236 59.923692029033226 293.01055421819 60.83643259722213 293.72 62.25999999999999 C 294.31 63.69999999999999 293.47 65.67999999999999 291.92 65.88999999999999 C 293.2783466986609 65.1518127276975 294.96047140367926 65.3952377830434 296.05382470745883 66.48821754308779 C 297.1471780112384 67.58119730313219 297.3911778478028 69.26323872966121 296.65345477649987 70.62183759349843 C 295.915731705197 71.98043645733564 294.37210940660106 72.69179394839102 292.86 72.36999999999999 C 293.86 71.6 295.42 72.86999999999999 295.29 74.13 C 295.0134225130123 75.39586172908615 294.08983502200414 76.42207005242858 292.86 76.83 C 289.86 78.13 286.43 77.71 283.36 76.67999999999999 C 280.29 75.64999999999999 277.44 74.03999999999999 274.36 72.92999999999999 C 271.28000000000003 71.82 266.21000000000004 69.82 263.16 70.92999999999999 C 260.91 71.72999999999999 259.34000000000003 74.44 258.07000000000005 73.83999999999999 C 256.8545498559717 73.19097946392766 256.0195035189502 72.00335800683041 255.82000000000005 70.63999999999999 C 255.65203669019738 69.30777830228699 255.69930627622358 67.9572187015377 255.96000000000004 66.63999999999999" stroke-linecap="round" />
</g>
		<g transform="matrix(1 0 0 1 25.17 -199.54)"  >
<path style="stroke: none; stroke-width: 1; stroke-dasharray: none; stroke-linecap: butt; stroke-dashoffset: 0; stroke-linejoin: miter; stroke-miterlimit: 4; fill: rgb(69,90,100); fill-rule: nonzero; opacity: 1;" vector-effect="non-scaling-stroke"  transform=" translate(-275.17, -65.38)" d="M 292.77 65.66 C 292.71 65.66 292.40999999999997 66.17999999999999 291.64 67.00999999999999 C 290.55105562800424 68.16948513598842 289.19496366657535 69.04493690855644 287.69 69.55999999999999 C 285.47752022078896 70.3554097733873 283.0423360057543 70.25857623317238 280.9 69.28999999999999 C 278.48 68.2 276.41 66 274 64 C 271.79034552538633 61.929710466326476 268.997422005843 60.58910717694569 266 60.16 C 263.49219167605446 59.85250963399654 260.9828407308917 60.719711798868964 259.2 62.510000000000005 C 258.0532670169116 63.75703857531134 257.4677616860256 65.41958457659261 257.58 67.11 C 257.6192439764796 67.55939178274127 257.7236713585446 68.0006816875965 257.89 68.42 C 258.02 68.7 258.09999999999997 68.84 258.12 68.83 C 257.98511271540724 68.26123911409667 257.8948383940897 67.68281475898762 257.85 67.1 C 257.85140574721754 65.51598003049723 258.4639458753183 63.99358497527601 259.56 62.849999999999994 C 261.28277131135343 61.22153193213161 263.65194295641845 60.46369131274746 266 60.79 C 268.8500381034399 61.243136496761686 271.49799306926695 62.542724920779435 273.6 64.52 C 275.94 66.52 278.08000000000004 68.75 280.67 69.88 C 284.5908354636383 71.55562095360037 289.1465177501591 70.46241976263329 291.88 67.19 C 292.1644306675358 66.85020176888024 292.4124529778748 66.48151995621416 292.62 66.09 C 292.73 65.82 292.79 65.67 292.77 65.66 Z" stroke-linecap="round" />
</g>
		<g transform="matrix(1 0 0 1 3.92 -186.92)"  >
<path style="stroke: none; stroke-width: 1; stroke-dasharray: none; stroke-linecap: butt; stroke-dashoffset: 0; stroke-linejoin: miter; stroke-miterlimit: 4; fill: rgb(69,90,100); fill-rule: nonzero; opacity: 1;" vector-effect="non-scaling-stroke"  transform=" translate(-253.92, -78)" d="M 252.43 87.26 C 252.43 87.26 252.74 87.06 253.01000000000002 86.5 C 253.36107547649394 85.68837114113435 253.48549037013734 84.7967310700235 253.37000000000003 83.92 C 253.21000000000004 81.63 251.18000000000004 79.17 250.92000000000004 76 C 250.73917939936103 74.53577592033943 251.0150909926309 73.05144139958377 251.71000000000004 71.75 C 252.31702299090605 70.72177713060329 253.24436905716323 69.92088734610844 254.35000000000002 69.47 C 255.1007225361799 69.15339258583884 255.92145619040903 69.03959338168103 256.73 69.14 C 257.3 69.24 257.61 69.37 257.64000000000004 69.31 C 257.40187805596406 69.090827339054 257.1076433461156 68.94197919171889 256.79 68.88 C 255.92785135458035 68.6554442663271 255.01790612105714 68.69728082878794 254.18 69 C 252.93256902270275 69.43966015813935 251.8736599389095 70.29384681906589 251.18 71.42 C 250.3819894439706 72.83113987532863 250.0561209772531 74.46048220891613 250.25 76.07000000000001 C 250.43483520061508 77.63329706048935 250.89886414937016 79.15070559364464 251.62 80.55000000000001 C 252.19128867031307 81.6379501358118 252.61181618489863 82.79860607606801 252.87 84 C 253.06661853118905 85.10596752425369 252.91278540161954 86.24573116606405 252.43 87.26 Z" stroke-linecap="round" />
</g>
		<g transform="matrix(1 0 0 1 39.03 126.51)"  >
<path style="stroke: none; stroke-width: 1; stroke-dasharray: none; stroke-linecap: butt; stroke-dashoffset: 0; stroke-linejoin: miter; stroke-miterlimit: 4; fill: rgb(38,50,56); fill-rule: nonzero; opacity: 1;" vector-effect="non-scaling-stroke"  transform=" translate(-289.03, -391.42)" d="M 294.2 455.84 C 294.2 455.84 315.87 349.53999999999996 315.89 347.41999999999996 L 277.18 327 L 262.18 451.75 Z" stroke-linecap="round" />
</g>
		<g transform="matrix(1 0 0 1 -2 82.62)"  >
<path style="stroke: none; stroke-width: 1; stroke-dasharray: none; stroke-linecap: butt; stroke-dashoffset: 0; stroke-linejoin: miter; stroke-miterlimit: 4; fill: rgb(38,50,56); fill-rule: nonzero; opacity: 1;" vector-effect="non-scaling-stroke"  transform=" translate(-248, -347.53)" d="M 245.46 459.4 L 275.39 275.16999999999996 L 275.39 235.43 L 232.04999999999998 238.53 C 231.52999999999997 240.08 220.6 459.64 220.6 459.64 L 224.82 459.4 L 245.45999999999998 459.4" stroke-linecap="round" />
</g>
		<g transform="matrix(1 0 0 1 39.19 25.11)"  >
<polygon style="stroke: none; stroke-width: 1; stroke-dasharray: none; stroke-linecap: butt; stroke-dashoffset: 0; stroke-linejoin: miter; stroke-miterlimit: 4; fill: rgb(38,50,56); fill-rule: nonzero; opacity: 1;" vector-effect="non-scaling-stroke"  points="9.73,-57.4 26.7,57.4 -11.24,48.2 -26.7,-53.66 9.73,-57.4 " />
</g>
		<g transform="matrix(1 0 0 1 56.42 5.7)"  >
<line style="stroke: none; stroke-width: 1; stroke-dasharray: none; stroke-linecap: butt; stroke-dashoffset: 0; stroke-linejoin: miter; stroke-miterlimit: 4; fill: rgb(64,123,255); fill-rule: nonzero; opacity: 1;" vector-effect="non-scaling-stroke"  x1="0.9650000000000034" y1="7.814999999999998" x2="-0.9650000000000034" y2="-7.814999999999998" />
</g>
		<g transform="matrix(1 0 0 1 47.53 -60.78)"  >
<path style="stroke: none; stroke-width: 1; stroke-dasharray: none; stroke-linecap: butt; stroke-dashoffset: 0; stroke-linejoin: miter; stroke-miterlimit: 4; fill: rgb(64,123,255); fill-rule: nonzero; opacity: 1;" vector-effect="non-scaling-stroke"  transform=" translate(-297.53, -204.13)" d="M 305.46 282.07 C 305.46 282.07 312.06 276.4 312.71 272.13 C 313.35999999999996 267.86 304.79999999999995 199.13 304.79999999999995 199.13 L 300.42999999999995 142.31 C 300.42999999999995 143.31 300.54999999999995 135.15 299.22999999999996 134.66 C 295.22999999999996 133.15 287.00999999999993 130.41 287.00999999999993 130.41 L 282.30999999999995 126.19 C 282.30999999999995 126.19 290.74999999999994 162.26999999999998 292.38999999999993 172.13 Z" stroke-linecap="round" />
</g>
		<g transform="matrix(1 0 0 1 -10.4 -49.59)"  >
<path style="stroke: none; stroke-width: 1; stroke-dasharray: none; stroke-linecap: butt; stroke-dashoffset: 0; stroke-linejoin: miter; stroke-miterlimit: 4; fill: rgb(64,123,255); fill-rule: nonzero; opacity: 1;" vector-effect="non-scaling-stroke"  transform=" translate(-239.6, -215.32)" d="M 251.27 122.27 L 244.17000000000002 127 L 217.54000000000002 137.47 L 229.37000000000003 182.07999999999998 L 227.78 208 L 226.27 224.45 C 226.27 224.45 218.34 265.18 211.34 289.93 C 211.34 289.93 219.15 304.73 225.57 306.79 L 228.23999999999998 308.38 L 237.76 238.67000000000002 L 245.92999999999998 227.67000000000002 C 246.71999999999997 226.61 247.45 225.52 248.14 224.4 C 250.14 221.13 254.72 213.70000000000002 258.37 207.97 C 263.19 200.4 269.37 183.2 267.54 175.86 C 265.71000000000004 168.52000000000004 251.27 122.27 251.27 122.27 Z" stroke-linecap="round" />
</g>
		<g transform="matrix(1 0 0 1 -9.2 1.99)"  >
<path style="stroke: none; stroke-width: 1; stroke-dasharray: none; stroke-linecap: butt; stroke-dashoffset: 0; stroke-linejoin: miter; stroke-miterlimit: 4; fill: rgb(38,50,56); fill-rule: nonzero; opacity: 1;" vector-effect="non-scaling-stroke"  transform=" translate(-240.8, -266.9)" d="M 233.18 276.06 C 239.41501153236618 271.0146447664017 244.59381603133224 264.7892052374609 248.42000000000002 257.74" stroke-linecap="round" />
</g>
		<g transform="matrix(1 0 0 1 18.68 -85.22)"  >
<path style="stroke: none; stroke-width: 1; stroke-dasharray: none; stroke-linecap: butt; stroke-dashoffset: 0; stroke-linejoin: miter; stroke-miterlimit: 4; fill: rgb(235,235,235); fill-rule: nonzero; opacity: 1;" vector-effect="non-scaling-stroke"  transform=" translate(-268.68, -179.7)" d="M 251.27 122.27 L 257.68 163.4 C 257.505999416797 168.6584772381875 256.63506659490713 173.8706234695747 255.09 178.9 L 243.65 215.9 C 243.65 215.9 234.65 236.07 237.76000000000002 238.65 C 240.87000000000003 241.23000000000002 265.06 238.65 265.06 238.65 L 297.8 233.9 C 299.3169217471702 233.6778714710933 300.39393554755634 232.3063273661118 300.25 230.78 L 295.39 180.56 C 293.75 177.09 293.08 169.99 292.39 167.47 L 282.31 126.19999999999999 L 280.25 125.92999999999999 L 275.77 129 L 273.40999999999997 129.19 L 253.59999999999997 119.6 Z" stroke-linecap="round" />
</g>
		<g transform="matrix(1 0 0 1 -2.34 -61.72)"  >
<path style="stroke: none; stroke-width: 1; stroke-dasharray: none; stroke-linecap: butt; stroke-dashoffset: 0; stroke-linejoin: miter; stroke-miterlimit: 4; fill: rgb(224,224,224); fill-rule: nonzero; opacity: 1;" vector-effect="non-scaling-stroke"  transform=" translate(-247.66, -203.2)" d="M 245.3 210.53 C 250.59 194.04 257.44 167.23000000000002 257.44 167.23000000000002 C 259.57 181.23000000000002 257.24 195.58 252.03 208.78000000000003 C 247.77 219.54000000000002 242.62 227.68000000000004 239.08 238.71000000000004 L 238.97 239.16000000000003 C 238.97 239.16000000000003 236.97 239.27000000000004 237.10999999999999 236.32000000000002 C 237.24999999999997 233.37 240.10999999999999 224.59000000000003 242.01999999999998 219.73000000000002 C 243.92999999999998 214.87 245.3 210.53 245.3 210.53 Z" stroke-linecap="round" />
</g>
		<g transform="matrix(1 0 0 1 25.68 -127.02)"  >
<polygon style="stroke: none; stroke-width: 1; stroke-dasharray: none; stroke-linecap: butt; stroke-dashoffset: 0; stroke-linejoin: miter; stroke-miterlimit: 4; fill: rgb(64,123,255); fill-rule: nonzero; opacity: 1;" vector-effect="non-scaling-stroke"  points="1.24,-5.4 -3.22,-5.4 -4.55,0.69 -0.66,5.4 3.26,5.01 4.55,0.64 3.5,-1.8 1.24,-5.4 " />
</g>
		<g transform="matrix(1 0 0 1 67.69 -119.66)"  >
<path style="stroke: none; stroke-width: 1; stroke-dasharray: none; stroke-linecap: butt; stroke-dashoffset: 0; stroke-linejoin: miter; stroke-miterlimit: 4; fill: rgb(64,123,255); fill-rule: nonzero; opacity: 1;" vector-effect="non-scaling-stroke"  transform=" translate(-317.69, -145.26)" d="M 302.86 168.05 C 304.26 168.33 319.72 178.73000000000002 325.34000000000003 177.61 C 330.96000000000004 176.49 335.51000000000005 171.19000000000003 336.11 170.48000000000002 C 339.3 166.70000000000002 337.3 158.85000000000002 336.38 155.89000000000001 C 336.1559043581169 155.16781410674614 335.8506198551502 154.4733757318659 335.46999999999997 153.82000000000002 L 311.59999999999997 112.82000000000002 L 297.53 121.37000000000002 L 312.13 148 Z" stroke-linecap="round" />
</g>
		<g transform="matrix(1 0 0 1 -40.17 -64.98)"  >
<path style="stroke: none; stroke-width: 1; stroke-dasharray: none; stroke-linecap: butt; stroke-dashoffset: 0; stroke-linejoin: miter; stroke-miterlimit: 4; fill: rgb(64,123,255); fill-rule: nonzero; opacity: 1;" vector-effect="non-scaling-stroke"  transform=" translate(-209.83, -199.93)" d="M 187.73 217.62 C 185.85887688622384 212.72700918204444 186.17191304915954 207.26707610758422 188.59 202.62 C 191.83 196.21 196.97 185.86 198.05 182.46 C 199.65 177.41 214.61 138.66000000000003 217.54000000000002 137.46 L 230.54000000000002 181.35000000000002 L 215.44000000000003 213.15000000000003 L 233.14000000000001 246.50000000000003 L 218.39 262.4 C 218.39 262.4 190.48 223.47999999999996 188.17999999999998 218.67 Q 187.94 218.15 187.73 217.62 Z" stroke-linecap="round" />
</g>
		<g transform="matrix(1 0 0 1 -14.62 -4.5)"  >
<path style="stroke: none; stroke-width: 1; stroke-dasharray: none; stroke-linecap: butt; stroke-dashoffset: 0; stroke-linejoin: miter; stroke-miterlimit: 4; fill: rgb(235,153,110); fill-rule: nonzero; opacity: 1;" vector-effect="non-scaling-stroke"  transform=" translate(-235.38, -260.41)" d="M 233.84 272.52 C 236.6313346735156 269.9080150652225 239.1111499117503 266.98190019683193 241.22999999999996 263.79999999999995 C 241.19017237537076 263.7144062213433 241.19017237537076 263.6155937786566 241.23 263.53 C 241.29906149234694 263.42922370245805 241.4085802116527 263.3635124708746 241.53 263.34999999999997 C 242.3772467028892 262.0368207371344 243.15174593283436 260.6781087259807 243.85000000000002 259.28 C 241.38 257.66999999999996 238.15 255.27999999999997 241.66 254.73999999999998 C 245.99 254.11999999999998 249.07999999999998 252.01999999999998 249.52 250.86999999999998 C 249.96000000000004 249.71999999999997 248.52 248.68999999999997 247.38000000000002 249.42 C 246.0678957663702 250.0931116913489 244.66744820417574 250.57788200133928 243.22000000000003 250.85999999999999 C 242.0642662434407 251.1325992663784 240.87063732054006 251.20698973749404 239.69000000000003 251.07999999999998 C 238.32000000000002 250.92999999999998 232.69000000000003 248.48999999999998 231.69000000000003 248.30999999999997 L 221.16000000000003 259.39 C 221.16000000000003 259.39 229.25 268 233.84 272.52 Z" stroke-linecap="round" />
</g>
		<g transform="matrix(1 0 0 1 51.16 -111.87)"  >
<path style="stroke: none; stroke-width: 1; stroke-dasharray: none; stroke-linecap: butt; stroke-dashoffset: 0; stroke-linejoin: miter; stroke-miterlimit: 4; fill: rgb(38,50,56); fill-rule: nonzero; opacity: 1;" vector-effect="non-scaling-stroke"  transform=" translate(-301.16, -153.05)" d="M 302.76 169.27 C 302.58735052606335 168.87648204122223 302.463108479781 168.463461184662 302.39 168.04000000000002 C 302.18 167.24 301.91999999999996 166.04000000000002 301.63 164.61 C 300.8893447439182 160.82403539782715 300.34528258907204 157.0022490953804 300 153.16000000000003 C 299.65627274730696 149.316767454271 299.516076889649 145.458043372068 299.5799999999999 141.60000000000002 C 299.58 140.12 299.65999999999997 138.93 299.71999999999997 138.1 C 299.7284511755047 137.67001525204273 299.775304118962 137.24164548328957 299.85999999999996 136.82 C 299.93086655680605 137.24612239149832 299.9510068785588 137.67913930918235 299.91999999999996 138.10999999999999 C 299.91999999999996 139.04 299.91999999999996 140.20999999999998 299.91999999999996 141.6 C 299.91999999999996 144.6 300.09 148.6 300.48999999999995 153.12 C 300.88999999999993 157.64000000000001 301.48999999999995 161.64000000000001 301.96999999999997 164.55 C 302.2 165.92000000000002 302.4 167.08 302.55999999999995 168 C 302.6666259216005 168.41606694425693 302.73359181100057 168.84130034194763 302.76 169.27 Z" stroke-linecap="round" />
</g>
		<g transform="matrix(1 0 0 1 60.97 -108.87)"  >
<path style="stroke: none; stroke-width: 1; stroke-dasharray: none; stroke-linecap: butt; stroke-dashoffset: 0; stroke-linejoin: miter; stroke-miterlimit: 4; fill: rgb(38,50,56); fill-rule: nonzero; opacity: 1;" vector-effect="non-scaling-stroke"  transform=" translate(-310.97, -156.04)" d="M 315 171.64 C 315 171.64 314.88 171.64 314.66 171.55999999999997 C 314.35118941332917 171.44732985087992 314.05329053350073 171.3067483570283 313.77000000000004 171.14 C 312.7290930721607 170.49562440673975 311.858033760809 169.61084762591798 311.23 168.55999999999997 C 310.3513954906369 167.00526844559215 309.7364043716873 165.31573240452178 309.41 163.55999999999997 C 308.89816315506977 161.43958934960546 308.5009209638081 159.29314624892254 308.22 157.12999999999997 C 307.8 152.50999999999996 307.45000000000005 148.35999999999996 307.22 145.33999999999997 C 307.12 143.90999999999997 307.04 142.70999999999998 306.97 141.75999999999996 C 306.92201590982853 141.32130822324405 306.92201590982853 140.8786917767559 306.97 140.43999999999997 C 307.08234295395846 140.86582168390265 307.1559757190669 141.30092438681612 307.19000000000005 141.73999999999998 C 307.2900000000001 142.73999999999998 307.43000000000006 143.87999999999997 307.59000000000003 145.29999999999998 C 307.92 148.29999999999998 308.33000000000004 152.48999999999998 308.74 157.07 C 309.03000000000003 159.35 309.46000000000004 161.51 309.89 163.45 C 310.1791938137509 165.1930379701738 310.7392991888381 166.88010235296662 311.55 168.45 C 312.1326302192575 169.4758111219167 312.93101642110986 170.3629069017526 313.89 171.04999999999998 C 314.61 171.44 315.05 171.6 315 171.64 Z" stroke-linecap="round" />
</g>
		<g transform="matrix(1 0 0 1 57.34 -110.16)"  >
<path style="stroke: none; stroke-width: 1; stroke-dasharray: none; stroke-linecap: butt; stroke-dashoffset: 0; stroke-linejoin: miter; stroke-miterlimit: 4; fill: rgb(0,0,0); fill-rule: nonzero; opacity: 0.30000000000000004;" vector-effect="non-scaling-stroke"  transform=" translate(-307.34, -154.75)" d="M 306.94 140.48 C 305.721912628752 145.08758598610387 304.87915532288173 149.78629239383324 304.42 154.53 C 303.9984955581005 157.36099952901242 304.1481028265639 160.24773977731832 304.86 163.02 C 305.72 165.74 307.73 168.25 310.49 169.02 Q 308.6 155.10000000000002 307.16 141.13" stroke-linecap="round" />
</g>
		<g transform="matrix(1 0 0 1 -20.24 -54.23)"  >
<path style="stroke: none; stroke-width: 1; stroke-dasharray: none; stroke-linecap: butt; stroke-dashoffset: 0; stroke-linejoin: miter; stroke-miterlimit: 4; fill: rgb(0,0,0); fill-rule: nonzero; opacity: 0.30000000000000004;" vector-effect="non-scaling-stroke"  transform=" translate(-229.76, -210.69)" d="M 225.06 230.39 C 225.06 230.39 229.74 239.98 232.33 245 C 237.73000000000002 222.69 230.88000000000002 199.21 233.11 176.37 L 229.21 184.24 L 228.11 202.45000000000002 L 227.27 213.13000000000002 C 227.27 213.13000000000002 226.47 224.62 225.06 230.39 Z" stroke-linecap="round" />
</g>
		<g transform="matrix(1 0 0 1 -17.73 -108.89)"  >
<path style="stroke: none; stroke-width: 1; stroke-dasharray: none; stroke-linecap: butt; stroke-dashoffset: 0; stroke-linejoin: miter; stroke-miterlimit: 4; fill: rgb(38,50,56); fill-rule: nonzero; opacity: 1;" vector-effect="non-scaling-stroke"  transform=" translate(-232.27, -156.02)" d="M 228.84 137.88 C 229.14228269918485 138.26718857016925 229.40682166768272 138.68241429287482 229.63 139.12 C 229.88 139.53 230.16 140.04 230.46 140.64000000000001 C 230.76000000000002 141.24000000000004 231.13 141.93 231.46 142.71 C 232.27535811024276 144.5325159648192 232.97997252922877 146.40258266923706 233.57000000000002 148.30999999999997 C 234.9928876892522 152.99751537131974 235.70744212969814 157.87131594153126 235.69000000000003 162.77 C 235.6847311238093 164.77681545261524 235.5477701671387 166.78112213559956 235.28000000000003 168.77 C 235.20000000000002 169.62 235.04000000000002 170.38000000000002 234.92000000000002 171.04000000000002 C 234.8 171.70000000000002 234.68 172.28000000000003 234.57000000000002 172.74 C 234.4807395529794 173.22575337365393 234.34339718198876 173.70142695123124 234.16000000000003 174.16 C 234.18694977667946 173.66810679006883 234.2572219251223 173.17954804375194 234.37000000000003 172.7 C 234.45000000000005 172.23 234.55000000000004 171.7 234.64000000000004 170.98999999999998 C 234.73000000000005 170.27999999999997 234.85000000000005 169.57 234.92000000000004 168.73 C 235.12556110115526 166.7601640555833 235.2223746526194 164.78049384805828 235.21000000000004 162.8 C 235.178980559642 160.3808279042723 234.9952819560886 157.96602626119767 234.66000000000003 155.57 C 234.2907209187889 153.1768366029986 233.77305630680257 150.80893847462247 233.11 148.48000000000002 C 232.55098168924513 146.5798879398532 231.88321384221 144.71347680739004 231.11 142.89 C 230.81 142.1 230.46 141.42 230.19000000000003 140.79999999999998 C 229.92000000000004 140.17999999999998 229.66000000000003 139.67 229.44000000000003 139.24999999999997 C 229.19449044834786 138.81464614065703 228.99347503503006 138.35566094691467 228.84 137.88 Z" stroke-linecap="round" />
</g>
		<g transform="matrix(1 0 0 1 -43.65 -56.24)"  >
<path style="stroke: none; stroke-width: 1; stroke-dasharray: none; stroke-linecap: butt; stroke-dashoffset: 0; stroke-linejoin: miter; stroke-miterlimit: 4; fill: rgb(38,50,56); fill-rule: nonzero; opacity: 1;" vector-effect="non-scaling-stroke"  transform=" translate(-206.35, -208.68)" d="M 215.3 213.42 C 215.23000000000002 213.47 214.56 212.42 213.3 210.76999999999998 C 211.61942945178694 208.6909112244376 209.62557830373044 206.88598675030863 207.39 205.42 C 206.19272640331147 204.61087895927065 204.74572906063443 204.25622274783018 203.31 204.42 C 202.14439768173568 204.6350431385608 201.0411427089363 205.10640284830174 200.08 205.79999999999998 C 198.39000000000001 206.95999999999998 197.47 207.86999999999998 197.4 207.79999999999998 C 197.5625237949841 207.53991829765835 197.7650058163602 207.30706397307577 198 207.10999999999999 C 198.58433264831666 206.5265580917054 199.20922727694582 205.98520552572717 199.87 205.48999999999998 C 200.85243689568372 204.74688120589903 201.99124642108185 204.2373237906308 203.2 204 C 204.74614064932544 203.77932211532882 206.31942691846362 204.13526923504335 207.61999999999998 205 C 209.9119473238914 206.48953830485164 211.9200228698822 208.3757070723337 213.54999999999998 210.57 C 214.0440055342962 211.22893301402488 214.49815003363108 211.91682835860564 214.91 212.63 C 215.08016238381603 212.87152652118294 215.2117340927702 213.1380435726542 215.3 213.42 Z" stroke-linecap="round" />
</g>
		<g transform="matrix(1 0 0 1 -36.35 -56.93)"  >
<path style="stroke: none; stroke-width: 1; stroke-dasharray: none; stroke-linecap: butt; stroke-dashoffset: 0; stroke-linejoin: miter; stroke-miterlimit: 4; fill: rgb(38,50,56); fill-rule: nonzero; opacity: 1;" vector-effect="non-scaling-stroke"  transform=" translate(-213.65, -207.99)" d="M 212 202.91 C 213.9847620113404 205.93884728789484 215.12406326078124 209.44306173693258 215.3 213.06 C 215.14000000000001 213.06 214.75 210.72 213.83 207.93 C 212.91000000000003 205.14000000000001 211.89 203 212 202.91 Z" stroke-linecap="round" />
</g>
		<g transform="matrix(1 0 0 1 -24.11 -18.7)"  >
<path style="stroke: none; stroke-width: 1; stroke-dasharray: none; stroke-linecap: butt; stroke-dashoffset: 0; stroke-linejoin: miter; stroke-miterlimit: 4; fill: rgb(38,50,56); fill-rule: nonzero; opacity: 1;" vector-effect="non-scaling-stroke"  transform=" translate(-225.89, -246.21)" d="M 224.75 229.77 C 225.03717405084086 230.17376860755567 225.28814795528777 230.60209740447837 225.5 231.05 L 227.4 234.64000000000001 C 228.99 237.69000000000003 231.16 241.94000000000003 233.57 246.71 L 233.66 246.88 L 233.53 247.01 L 232.53 248.01 C 228.6 252.1 225.03 255.79 222.42000000000002 258.43 L 219.31 261.55 C 218.94421989381436 261.9487295149577 218.54620659915616 262.3166409638014 218.12 262.65000000000003 C 218.4183306906145 262.20962165427943 218.75282009847385 261.7948547885338 219.12 261.41 L 222.12 258.18 C 224.66 255.46 228.20000000000002 251.74 232.12 247.65 L 233.12 246.65 L 233.12 246.95000000000002 C 230.72 242.17000000000002 228.6 237.95000000000002 227.12 234.8 L 225.37 231.14000000000001 C 225.11912945292087 230.70465581378338 224.9114727864632 230.24580156693335 224.75 229.77 Z" stroke-linecap="round" />
</g>
		<g transform="matrix(1 0 0 1 -2.54 -96.1)"  >
<path style="stroke: none; stroke-width: 1; stroke-dasharray: none; stroke-linecap: butt; stroke-dashoffset: 0; stroke-linejoin: miter; stroke-miterlimit: 4; fill: rgb(38,50,56); fill-rule: nonzero; opacity: 1;" vector-effect="non-scaling-stroke"  transform=" translate(-247.46, -168.81)" d="M 244.23 209.65 C 244.20393716975875 209.36058557855188 244.20393716975875 209.06941442144813 244.23 208.78 C 244.23 208.17 244.23 207.35 244.23 206.31 C 244.28 204.12 244.35 201.02 244.44 197.22 C 244.53 193.42 244.63 188.82 244.84 183.75 C 244.96742274562015 178.22306587892328 245.71885467139506 172.7282199216942 247.07999999999998 167.37 C 247.83602905147086 164.62406742766132 248.89591187201574 161.97100631674041 250.24 159.46 L 250.43 159.84 C 249.1853224186934 159.6271023302344 248.05375957672894 158.98706209774824 247.23000000000002 158.03 C 246.44473321982855 157.13336159881052 245.87366611245 156.06987734494987 245.56000000000003 154.92 C 245.1020513600313 152.7923257747833 244.92720527957556 150.61347461833466 245.04000000000002 148.44000000000003 C 245.04000000000002 144.37 245.04000000000002 140.73 245.04000000000002 137.69 C 245.04000000000002 134.65 245.04000000000002 132.28 245.04000000000002 130.56 C 245.04000000000002 129.76 245.04000000000002 129.12 245.04000000000002 128.64000000000001 C 245.01651391984345 128.4206268135922 245.01651391984342 128.19937318640783 245.04000000000002 127.98000000000002 C 245.07784225043798 128.19788143614053 245.09458640465516 128.418904271807 245.09000000000003 128.64000000000001 C 245.09000000000003 129.12 245.09000000000003 129.76000000000002 245.14000000000004 130.56 C 245.14000000000004 132.28 245.20000000000005 134.69 245.25000000000006 137.68 C 245.30000000000007 140.67000000000002 245.32000000000005 144.36 245.36000000000007 148.44 C 245.25999117453767 150.57120314496083 245.44155737885757 152.706287214278 245.90000000000006 154.79 C 246.1988586822818 155.86232423798026 246.73547924495725 156.8535341945145 247.47000000000006 157.69 C 248.21544667880457 158.5586019872453 249.24145525207123 159.1388275252306 250.37000000000006 159.32999999999998 L 250.73000000000008 159.39 L 250.5600000000001 159.70999999999998 C 249.2351187297209 162.18561619812274 248.19193795275723 164.80195383809604 247.45000000000007 167.51000000000002 C 246.1039731703178 172.83097775291927 245.3461010650518 178.28363281116032 245.19000000000008 183.76999999999995 C 244.9600000000001 188.82999999999998 244.83000000000007 193.39999999999998 244.67000000000007 197.23999999999998 C 244.51000000000008 201.07999999999998 244.39000000000007 204.11999999999998 244.30000000000007 206.32 L 244.18000000000006 208.79 C 244.21097282309304 209.07565556188666 244.22766027432908 209.36267972314693 244.23 209.65 Z" stroke-linecap="round" />
</g>
		<g transform="matrix(1 0 0 1 43.04 -100.79)"  >
<path style="stroke: none; stroke-width: 1; stroke-dasharray: none; stroke-linecap: butt; stroke-dashoffset: 0; stroke-linejoin: miter; stroke-miterlimit: 4; fill: rgb(38,50,56); fill-rule: nonzero; opacity: 1;" vector-effect="non-scaling-stroke"  transform=" translate(-293.04, -164.12)" d="M 287.08 131 C 287.17982315313054 131.17402983862874 287.26030217385085 131.3584609277794 287.32 131.55 C 287.46 131.97 287.65999999999997 132.55 287.89 133.16000000000003 L 289.96 139.16000000000003 C 290.82 141.73000000000002 291.84999999999997 144.78000000000003 292.96 148.16000000000003 C 293.51 149.89000000000001 294.19 151.65000000000003 294.7 153.60000000000002 C 294.9741700960668 154.6140846014632 295.01858275392726 155.67657203181687 294.83 156.71000000000004 C 294.63265250287725 157.8242148477902 293.98993163843227 158.80996089269738 293.05 159.44000000000003 L 293.13 159.07000000000002 C 293.96999999999997 160.32000000000002 294.86 161.65000000000003 295.69 163.07000000000002 C 296.9376258471584 165.0801830813279 297.8811627856805 167.26379713905038 298.49 169.55 C 298.9574439218854 171.70325754307652 299.1090324712067 173.91308172873883 298.94 176.11 C 298.7 180.26000000000002 298.43 183.99 298.21 187.11 C 297.98999999999995 190.23000000000002 297.79999999999995 192.73000000000002 297.65999999999997 194.54000000000002 C 297.59 195.37000000000003 297.53 196.04000000000002 297.48999999999995 196.54000000000002 C 297.4797184531203 196.7760495493961 297.4462235888264 197.01051359945347 297.38999999999993 197.24 C 297.36613876028264 197.0039347686441 297.36613876028264 196.76606523135592 297.38999999999993 196.53 C 297.38999999999993 196.02 297.43999999999994 195.34 297.4699999999999 194.53 C 297.5599999999999 192.71 297.68999999999994 190.18 297.8499999999999 187.09 C 298.0099999999999 184 298.2399999999999 180.20000000000002 298.4799999999999 176.09 C 298.6185287487191 173.94188778837764 298.4603744317113 171.78493210322884 298.0099999999999 169.68 C 297.4026271111925 167.447042264514 296.47284244353636 165.31460134195484 295.2499999999999 163.35 C 294.4299999999999 161.97 293.5499999999999 160.65 292.70999999999987 159.35 L 292.5599999999999 159.13 L 292.7899999999999 158.99 C 293.6107309824814 158.43780432747388 294.170561398205 157.5745819445195 294.3399999999999 156.60000000000002 C 294.5186110512465 155.63712008694975 294.4810389489307 154.64658284407804 294.2299999999999 153.70000000000002 C 293.7499999999999 151.82000000000002 293.0699999999999 150.01000000000002 292.5299999999999 148.3 C 291.4299999999999 144.87 290.43999999999994 141.81 289.5999999999999 139.23000000000002 C 288.7599999999999 136.65000000000003 288.1499999999999 134.66000000000003 287.6899999999999 133.23000000000002 C 287.4799999999999 132.56000000000003 287.3199999999999 132.01000000000002 287.1899999999999 131.59000000000003 C 287.1390039243497 131.3962768563941 287.10223926324693 131.1990845832065 287.08 131 Z" stroke-linecap="round" />
</g>
		<g transform="matrix(1 0 0 1 -9.16 -0.35)"  >
<path style="stroke: none; stroke-width: 1; stroke-dasharray: none; stroke-linecap: butt; stroke-dashoffset: 0; stroke-linejoin: miter; stroke-miterlimit: 4; fill: rgb(69,90,100); fill-rule: nonzero; opacity: 1;" vector-effect="non-scaling-stroke"  transform=" translate(-240.84, -264.57)" d="M 248.16 255.26 C 248.0496797933747 255.55533102806652 247.89452734882406 255.83190712487422 247.7 256.08 C 247.38 256.59 246.89999999999998 257.31 246.29 258.19 C 245.06 259.95 243.29 262.34 241.29 264.92 C 239.29 267.50000000000006 237.35 269.76 235.92999999999998 271.36 C 235.21999999999997 272.16 234.62999999999997 272.8 234.20999999999998 273.23 C 233.79 273.66 233.54999999999998 273.89000000000004 233.51999999999998 273.87 C 234.16865517017877 272.907419785238 234.88020512314296 271.9887520055894 235.64999999999998 271.12 C 236.99999999999997 269.46 238.85999999999999 267.12 240.87999999999997 264.6 C 242.89999999999995 262.08000000000004 244.68999999999997 259.68 245.98999999999998 257.97 C 246.65327363307188 257.02017074953403 247.378164517667 256.11489227153737 248.16 255.26 Z" stroke-linecap="round" />
</g>
		<g transform="matrix(1 0 0 1 -0.78 85.67)"  >
<path style="stroke: none; stroke-width: 1; stroke-dasharray: none; stroke-linecap: butt; stroke-dashoffset: 0; stroke-linejoin: miter; stroke-miterlimit: 4; fill: rgb(69,90,100); fill-rule: nonzero; opacity: 1;" vector-effect="non-scaling-stroke"  transform=" translate(-249.22, -350.59)" d="M 263.83 242.36 C 263.83 242.36 263.83 242.55 263.83 242.92000000000002 C 263.83 243.29000000000002 263.72999999999996 243.86 263.65 244.57000000000002 C 263.48999999999995 246.03000000000003 263.23999999999995 248.16000000000003 262.92999999999995 250.89000000000001 C 262.28 256.38 261.30999999999995 264.33000000000004 260.03 274.13 C 257.5 293.74 253.65999999999997 320.78999999999996 249.52999999999997 350.67 C 247.46999999999997 365.62 245.52999999999997 379.86 243.96999999999997 392.84000000000003 C 243.55999999999997 396.08000000000004 243.22999999999996 399.25000000000006 242.76999999999998 402.32000000000005 C 242.31 405.39000000000004 241.83999999999997 408.32000000000005 241.39999999999998 411.22 L 238.98 427.22 C 237.51 437 236.35 444.91 235.59 450.39000000000004 C 235.21 453.12000000000006 234.93 455.25000000000006 234.76 456.70000000000005 C 234.67999999999998 457.4200000000001 234.62 457.97 234.6 458.34000000000003 C 234.59091637589967 458.4798526567379 234.59091637589967 458.6201473432622 234.6 458.76000000000005 C 234.6 458.88000000000005 234.67 458.76000000000005 234.67 458.76000000000005 L 234.67 458.76000000000005 C 234.67 458.76000000000005 234.58999999999997 458.76000000000005 234.6 458.71000000000004 C 234.58094440751492 458.57064842072316 234.58094440751492 458.4293515792769 234.6 458.29 C 234.6 457.92 234.65 457.36 234.72 456.64000000000004 C 234.85 455.19000000000005 235.1 453.05000000000007 235.45 450.31000000000006 C 236.14999999999998 444.82000000000005 237.25 436.90000000000003 238.67 427.12000000000006 C 239.39999999999998 422.2200000000001 240.19 416.87000000000006 241.03 411.12000000000006 C 241.47 408.24000000000007 241.91 405.27000000000004 242.37 402.21000000000004 C 242.83 399.15000000000003 243.15 395.98 243.56 392.74 C 245.14000000000001 379.74 247.02 365.51 249.07 350.56 C 253.2 320.67 257.07 293.64 259.73 274.04 C 261.02000000000004 264.26000000000005 262.06 256.33000000000004 262.79 250.83 C 263.14000000000004 248.10000000000002 263.42 245.98000000000002 263.61 244.51000000000002 C 263.71000000000004 243.81000000000003 263.78000000000003 243.26000000000002 263.83000000000004 242.87000000000003 C 263.88000000000005 242.48000000000005 263.83 242.36 263.83 242.36 Z" stroke-linecap="round" />
</g>
		<g transform="matrix(1 0 0 1 46.35 85.2)"  >
<path style="stroke: none; stroke-width: 1; stroke-dasharray: none; stroke-linecap: butt; stroke-dashoffset: 0; stroke-linejoin: miter; stroke-miterlimit: 4; fill: rgb(69,90,100); fill-rule: nonzero; opacity: 1;" vector-effect="non-scaling-stroke"  transform=" translate(-296.35, -350.11)" d="M 286.65 454.85 C 286.66386824240845 454.66889913296166 286.68723372529644 454.4886511221112 286.71999999999997 454.31 C 286.78 453.93 286.85999999999996 453.4 286.96999999999997 452.71 C 287.21999999999997 451.28999999999996 287.57 449.23999999999995 287.96999999999997 446.59999999999997 C 288.9 441.27 290.24999999999994 433.59999999999997 291.90999999999997 424.13 L 305.15 350 C 305.5349776587467 348.2408766178781 305.6429444916219 346.4324321672185 305.46999999999997 344.64 C 305.23999999999995 342.86 304.94 341.06 304.67999999999995 339.3 Q 303.86999999999995 333.99 303.06999999999994 328.85 C 301.98999999999995 322.01000000000005 300.91999999999996 315.41 299.87999999999994 309.13 C 297.78999999999996 296.57 295.7699999999999 285.28 293.9699999999999 275.82 C 292.1699999999999 266.36 290.5799999999999 258.73 289.37999999999994 253.48 C 288.80999999999995 250.85 288.28999999999996 248.82 287.9699999999999 247.48 C 287.81999999999994 246.81 287.69999999999993 246.28 287.6099999999999 245.91 C 287.51999999999987 245.54 287.4999999999999 245.37 287.4999999999999 245.37 C 287.5627246985711 245.54369425113956 287.6161339985381 245.72061255728028 287.6599999999999 245.9 L 288.0799999999999 247.46 C 288.42999999999995 248.83 288.9799999999999 250.85 289.5799999999999 253.46 C 290.8399999999999 258.69 292.4799999999999 266.32 294.3299999999999 275.77 C 296.17999999999995 285.21999999999997 298.2299999999999 296.51 300.3299999999999 309.07 C 301.38999999999993 315.34999999999997 302.4599999999999 321.95 303.54999999999995 328.78999999999996 Q 304.34999999999997 333.93999999999994 305.16999999999996 339.23999999999995 C 305.43999999999994 341.0199999999999 305.72999999999996 342.78 305.96999999999997 344.59999999999997 C 306.14601871694373 346.44931815869165 306.03470064185177 348.31473923523276 305.64 350.12999999999994 C 300.43 379.03999999999996 295.71999999999997 405.2199999999999 292.3 424.18999999999994 C 290.57 433.6499999999999 289.17 441.30999999999995 288.2 446.62999999999994 C 287.71 449.2699999999999 287.32 451.31999999999994 287.06 452.72999999999996 C 286.93 453.40999999999997 286.82 453.93999999999994 286.75 454.30999999999995 C 286.68 454.67999999999995 286.65 454.85 286.65 454.85 Z" stroke-linecap="round" />
</g>
		<g transform="matrix(1 0 0 1 21.2 35.52)"  >
<path style="stroke: none; stroke-width: 1; stroke-dasharray: none; stroke-linecap: butt; stroke-dashoffset: 0; stroke-linejoin: miter; stroke-miterlimit: 4; fill: rgb(69,90,100); fill-rule: nonzero; opacity: 1;" vector-effect="non-scaling-stroke"  transform=" translate(-271.2, -300.43)" d="M 275.39 273.87 C 275.53999999999996 273.87 273.77 285.79 271.44 300.45 C 269.11 315.10999999999996 267.12 327 267 327 C 266.88 327 268.63 315.08 270.95 300.42 C 273.27 285.76000000000005 275.25 273.85 275.39 273.87 Z" stroke-linecap="round" />
</g>
		<g transform="matrix(1 0 0 1 -16.78 194.56)"  >
<path style="stroke: none; stroke-width: 1; stroke-dasharray: none; stroke-linecap: butt; stroke-dashoffset: 0; stroke-linejoin: miter; stroke-miterlimit: 4; fill: rgb(69,90,100); fill-rule: nonzero; opacity: 1;" vector-effect="non-scaling-stroke"  transform=" translate(-233.22, -459.47)" d="M 245.82 459.07 C 245.49435505381362 459.1651154339075 245.15878224780846 459.2221628109284 244.82 459.24 C 244.19 459.31 243.26999999999998 459.40000000000003 242.13 459.49 C 239.85999999999999 459.67 236.71 459.84000000000003 233.23 459.89 C 229.74999999999997 459.93999999999994 226.59 459.89 224.31 459.78 C 223.17000000000002 459.78 222.25 459.67999999999995 221.62 459.61999999999995 C 221.28141859755195 459.62555320911804 220.94403914123873 459.5783200852342 220.62 459.47999999999996 C 221.84766131079473 459.38553536264624 223.079916478732 459.3654986932489 224.30999999999997 459.41999999999996 C 226.59 459.41999999999996 229.73 459.41999999999996 233.21 459.36999999999995 C 236.69000000000003 459.31999999999994 239.82000000000002 459.2099999999999 242.10000000000002 459.11999999999995 C 243.3374698001675 459.0198057188912 244.58028432538998 459.0031012225844 245.82 459.07 Z" stroke-linecap="round" />
</g>
		<g transform="matrix(1 0 0 1 28.19 188.85)"  >
<path style="stroke: none; stroke-width: 1; stroke-dasharray: none; stroke-linecap: butt; stroke-dashoffset: 0; stroke-linejoin: miter; stroke-miterlimit: 4; fill: rgb(69,90,100); fill-rule: nonzero; opacity: 1;" vector-effect="non-scaling-stroke"  transform=" translate(-278.19, -453.76)" d="M 294.2 455.84 C 293.775391819498 455.8590284926445 293.34994479432254 455.83557865661123 292.93 455.77 L 289.49 455.40999999999997 C 286.59000000000003 455.08 282.59000000000003 454.58 278.17 454.01 C 273.75 453.44 269.75 452.89 266.86 452.46999999999997 L 263.44 451.95 C 263.0174709706626 451.89926908569333 262.5995386864294 451.8156826288467 262.19 451.7 C 262.6169876292571 451.65952411370176 263.0474708091562 451.67633986291656 263.46999999999997 451.75 C 264.28 451.82 265.46999999999997 451.94 266.90999999999997 452.1 C 269.80999999999995 452.43 273.82 452.92 278.23999999999995 453.49 C 282.6599999999999 454.06 286.65 454.62 289.53999999999996 455.04 L 292.96 455.57 C 293.38255233634777 455.61067186402556 293.7987915012728 455.70130458542053 294.2 455.84 Z" stroke-linecap="round" />
</g>
		<g transform="matrix(1 0 0 1 12.54 -130.02)"  >
<path style="stroke: none; stroke-width: 1; stroke-dasharray: none; stroke-linecap: butt; stroke-dashoffset: 0; stroke-linejoin: miter; stroke-miterlimit: 4; fill: rgb(38,50,56); fill-rule: nonzero; opacity: 1;" vector-effect="non-scaling-stroke"  transform=" translate(-262.54, -134.89)" d="M 252 128.92 C 252.38877509144768 129.1205186818494 252.75716905775525 129.35830024192066 253.1 129.63 L 256.04 131.63 C 258.54 133.34 262.04 135.63 266.04 137.91 C 267.54 138.77 269.04 139.57 270.36 140.29 L 270 140.45 C 270.84 137.13 271.58 134.28 272.12 132.26999999999998 C 272.38 131.32999999999998 272.6 130.54999999999998 272.78000000000003 129.90999999999997 C 272.84369776993765 129.6228938028345 272.9410368537424 129.34430263194517 273.07000000000005 129.07999999999996 C 273.0630065722491 129.3742770137534 273.0193361643517 129.6665328204512 272.94000000000005 129.94999999999996 C 272.80000000000007 130.59999999999997 272.63000000000005 131.38999999999996 272.43000000000006 132.33999999999995 C 271.96000000000004 134.33999999999995 271.2900000000001 137.23999999999995 270.43000000000006 140.56999999999994 L 270.36000000000007 140.86999999999995 L 270.0800000000001 140.72999999999996 C 268.7100000000001 140.01999999999995 267.2300000000001 139.21999999999997 265.7300000000001 138.35999999999996 C 262.30043948832434 136.40191723712277 258.98201900283203 134.25529312024997 255.7900000000001 131.92999999999998 C 254.57000000000008 131.03999999999996 253.60000000000008 130.27999999999994 252.94000000000008 129.74999999999994 C 252.5970944692299 129.50874673031925 252.28185393249655 129.23039604362918 252 128.92 Z" stroke-linecap="round" />
</g>
		<g transform="matrix(1 0 0 1 30.18 -130.68)"  >
<path style="stroke: none; stroke-width: 1; stroke-dasharray: none; stroke-linecap: butt; stroke-dashoffset: 0; stroke-linejoin: miter; stroke-miterlimit: 4; fill: rgb(38,50,56); fill-rule: nonzero; opacity: 1;" vector-effect="non-scaling-stroke"  transform=" translate(-280.18, -134.23)" d="M 285 136.28 C 283.6076264533513 137.39437369372934 282.12973279722075 138.3974689354469 280.58 139.28 L 280.35999999999996 139.42 L 280.23999999999995 139.17999999999998 L 278.88999999999993 136.54999999999998 C 277.88999999999993 134.54999999999998 276.93999999999994 132.64999999999998 276.30999999999995 131.29 C 275.91760726116337 130.57553178451994 275.6024936572133 129.8212704984693 275.36999999999995 129.04 C 275.8648070322533 129.6887372679393 276.2873100576586 130.38955577833386 276.62999999999994 131.13 C 277.34999999999997 132.44 278.31999999999994 134.26999999999998 279.34999999999997 136.31 L 280.7 139 L 280.36 138.9 C 281.8412858602363 137.9156292373104 283.3920211885163 137.0399985131523 285 136.28 Z" stroke-linecap="round" />
</g>
		<g transform="matrix(1 0 0 1 25.32 -127.46)"  >
<path style="stroke: none; stroke-width: 1; stroke-dasharray: none; stroke-linecap: butt; stroke-dashoffset: 0; stroke-linejoin: miter; stroke-miterlimit: 4; fill: rgb(38,50,56); fill-rule: nonzero; opacity: 1;" vector-effect="non-scaling-stroke"  transform=" translate(-275.32, -137.46)" d="M 278.48 135.3 C 278.21339031676433 135.5621818476007 277.91821135884487 135.7936289850603 277.6 135.99 C 277.05 136.4 276.27000000000004 136.99 275.40000000000003 137.54000000000002 C 274.53000000000003 138.09000000000003 273.74 138.66000000000003 273.16 139.04000000000002 C 272.84374084023904 139.2585028204046 272.50915825648417 139.44921489314487 272.16 139.61 C 272.42732458988024 139.34571959254438 272.72236272117425 139.11103016992413 273.04 138.91000000000003 C 273.6 138.51000000000002 274.38 137.96000000000004 275.24 137.37000000000003 L 277.48 135.87000000000003 C 277.796259159761 135.65149717959545 278.1308417435159 135.46078510685518 278.48 135.3 Z" stroke-linecap="round" />
</g>
		<g transform="matrix(1 0 0 1 23.59 -129.46)"  >
<path style="stroke: none; stroke-width: 1; stroke-dasharray: none; stroke-linecap: butt; stroke-dashoffset: 0; stroke-linejoin: miter; stroke-miterlimit: 4; fill: rgb(38,50,56); fill-rule: nonzero; opacity: 1;" vector-effect="non-scaling-stroke"  transform=" translate(-273.59, -135.45)" d="M 275.48 137.37 C 274.76656702966187 136.80952935931833 274.0978776446589 136.19433512511563 273.48 135.53 C 272.8337941483529 134.90938590532153 272.23542297866106 134.240814766001 271.69 133.53 C 272.38416381102786 134.0912294767696 273.0328529903874 134.70648106956426 273.63 135.37 C 274.2971907068133 135.9880904935801 274.9156932274425 136.65674186723328 275.48 137.37 Z" stroke-linecap="round" />
</g>
		<g transform="matrix(1 0 0 1 9.95 -32.29)"  >
<path style="stroke: none; stroke-width: 1; stroke-dasharray: none; stroke-linecap: butt; stroke-dashoffset: 0; stroke-linejoin: miter; stroke-miterlimit: 4; fill: rgb(38,50,56); fill-rule: nonzero; opacity: 1;" vector-effect="non-scaling-stroke"  transform=" translate(-259.95, -232.62)" d="M 256.64 226.08 C 256.93554382680696 228.57946367838193 257.63462480197154 231.01442688173302 258.71 233.29000000000002 C 259.9319390532573 235.48829435705477 261.5061684998135 237.4712829517511 263.37 239.16000000000003 C 262.68461488108585 238.83961363815146 262.0642292739748 238.3955124658479 261.54 237.85000000000002 C 258.8241507762238 235.36215712983181 257.0863943495273 231.98594464367866 256.64000000000004 228.33 C 256.50649388444526 227.58594129429684 256.5064938844452 226.82405870570318 256.64 226.08 Z" stroke-linecap="round" />
</g>
		<g transform="matrix(1 0 0 1 8.07 -27.72)"  >
<path style="stroke: none; stroke-width: 1; stroke-dasharray: none; stroke-linecap: butt; stroke-dashoffset: 0; stroke-linejoin: miter; stroke-miterlimit: 4; fill: rgb(38,50,56); fill-rule: nonzero; opacity: 1;" vector-effect="non-scaling-stroke"  transform=" translate(-258.07, -237.19)" d="M 262.46 239.26 C 259.131063354062 238.9762717009924 256.0133398826357 237.5114027661812 253.67 235.13 C 253.76999999999998 235.01 255.48999999999998 236.38 257.90999999999997 237.51 C 260.3299999999999 238.64 262.49 239.1 262.46 239.26 Z" stroke-linecap="round" />
</g>
		<g transform="matrix(1 0 0 1 34.14 -43.46)"  >
<path style="stroke: none; stroke-width: 1; stroke-dasharray: none; stroke-linecap: butt; stroke-dashoffset: 0; stroke-linejoin: miter; stroke-miterlimit: 4; fill: rgb(38,50,56); fill-rule: nonzero; opacity: 1;" vector-effect="non-scaling-stroke"  transform=" translate(-284.14, -221.45)" d="M 282 207.25 C 282.17222145941514 207.58784002937642 282.29674168811846 207.94793906913998 282.37 208.32 C 282.58 209.01999999999998 282.85 210.04 283.15 211.32 C 283.77 213.85 284.5 217.38 285.08 221.32 C 285.65999999999997 225.26 285.99 228.84 286.14 231.45 C 286.21 232.75 286.25 233.79999999999998 286.25 234.53 C 286.29924564324506 234.9050570648667 286.29924564324506 235.2849429351333 286.25 235.66 C 286.1570082073538 235.29341509751754 286.10337165175474 234.91795920832408 286.09 234.54 C 286.01 233.7 285.91999999999996 232.67999999999998 285.81 231.47 C 285.57 228.89 285.19 225.32 284.61 221.4 C 284.03000000000003 217.48000000000002 283.35 213.95000000000002 282.83000000000004 211.4 C 282.59000000000003 210.21 282.38000000000005 209.20000000000002 282.21000000000004 208.4 C 282.0975686271951 208.02564076638964 282.02713540380506 207.6399350192538 282 207.25 Z" stroke-linecap="round" />
</g>
		<g transform="matrix(1 0 0 1 29.02 -77.11)"  >
<path style="stroke: none; stroke-width: 1; stroke-dasharray: none; stroke-linecap: butt; stroke-dashoffset: 0; stroke-linejoin: miter; stroke-miterlimit: 4; fill: rgb(224,224,224); fill-rule: nonzero; opacity: 1;" vector-effect="non-scaling-stroke"  transform=" translate(-279.02, -187.81)" d="M 275.34 144.31 C 274.03999999999996 154.7 273.08 177.31 272.71999999999997 187.8 C 272.41999999999996 196.56 272.45 205.33 272.47999999999996 214.10000000000002 C 272.47999999999996 216.93000000000004 272.47999999999996 219.85000000000002 273.68999999999994 222.42000000000002 C 275.7799999999999 227.05 280.88999999999993 229.42000000000002 285.5799999999999 231.3 Z" stroke-linecap="round" />
</g>
		<g transform="matrix(1 0 0 1 33.69 -78.56)"  >
<path style="stroke: none; stroke-width: 1; stroke-dasharray: none; stroke-linecap: butt; stroke-dashoffset: 0; stroke-linejoin: miter; stroke-miterlimit: 4; fill: rgb(64,123,255); fill-rule: nonzero; opacity: 1;" vector-effect="non-scaling-stroke"  transform=" translate(-283.69, -186.35)" d="M 287 229.8 L 292.37 216.64000000000001 L 278.94 142.9 L 275.02 143.29 C 275.02 143.29 275.57 219.93 275.39 220.62 Z" stroke-linecap="round" />
</g>
		<g transform="matrix(1 0 0 1 26.93 -121.83)"  >
<path style="stroke: none; stroke-width: 1; stroke-dasharray: none; stroke-linecap: butt; stroke-dashoffset: 0; stroke-linejoin: miter; stroke-miterlimit: 4; fill: rgb(38,50,56); fill-rule: nonzero; opacity: 1;" vector-effect="non-scaling-stroke"  transform=" translate(-276.93, -143.09)" d="M 278.8 142.9 C 278.19457107119695 143.0916963430804 277.5648999279824 143.19608032938868 276.93 143.21 C 276.30603424307407 143.2922817137445 275.67396575692595 143.2922817137445 275.05 143.21 C 275.6679053444012 143.10295173167162 276.2930207236799 143.04278019783732 276.92 143.03 C 277.54332252408034 142.9473057011371 278.171228014604 142.90388670445193 278.8 142.9 Z" stroke-linecap="round" />
</g>
</g>
</g>
</svg>